<svg xmlns="http://www.w3.org/2000/svg" xmlns:xlink="http://www.w3.org/1999/xlink" xmlns:lucid="lucid" width="2770.67" height="1188.67"><g transform="translate(-9.333333333333343 -111.33333333333334)" lucid:page-tab-id="0_0"><path d="M0 0h3676.8v1323.2H0z" fill="#fff"/><path d="M29.33 137.33c0-3.3 2.7-6 6-6h228c3.32 0 6 2.7 6 6v48c0 3.32-2.68 6-6 6h-228c-3.3 0-6-2.68-6-6z" fill="none"/><use xlink:href="#a" transform="matrix(1,0,0,1,29.333333333333343,131.33333333333334) translate(75 34.44444444444444)"/><path d="M214.75 274.75c0 8.15-6.6 14.75-14.75 14.75s-14.75-6.6-14.75-14.75S191.85 260 200 260s14.75 6.6 14.75 14.75z" stroke="#5e5e5e" stroke-width="3" fill="#fff"/><path d="M200 289.5v35.3c0 3.3 1.74 8.05 3.88 10.58L240 378m-40-47.2L160 378m0-73.75h80" stroke="#5e5e5e" stroke-width="3" fill="none"/><path d="M160 266c0-3.3 2.7-6 6-6h68c3.3 0 6 2.7 6 6v128c0 3.3-2.7 6-6 6h-68c-3.3 0-6-2.7-6-6z" fill="none"/><use xlink:href="#b" transform="matrix(1,0,0,1,80,378) translate(83.64197530864197 17.77777777777778)"/><path d="M640 330c0 27.6-22.4 50-50 50s-50-22.4-50-50 22.4-50 50-50 50 22.4 50 50z" stroke="#5e5e5e" stroke-width="3" fill="#fff"/><path d="M520 280v100m0-50h20" stroke="#5e5e5e" stroke-width="3" fill="none"/><use xlink:href="#a" transform="matrix(1,0,0,1,500,380) translate(45 17.77777777777778)"/><path d="M1340 286c0-3.3 2.7-6 6-6h148c3.3 0 6 2.7 6 6v88c0 3.3-2.7 6-6 6h-148c-3.3 0-6-2.7-6-6z" stroke="#5e5e5e" stroke-width="3" fill="#fff"/><use xlink:href="#c" transform="matrix(1,0,0,1,1340,280) translate(61.055 55.025)"/><path d="M580 566c0-3.3 2.7-6 6-6h28c3.3 0 6 2.7 6 6v108c0 3.3-2.7 6-6 6h-28c-3.3 0-6-2.7-6-6zM1060 330c0 27.6-22.4 50-50 50s-50-22.4-50-50 22.4-50 50-50 50 22.4 50 50z" stroke="#5e5e5e" stroke-width="3" fill="#fff"/><path d="M940 280v100m0-50h20" stroke="#5e5e5e" stroke-width="3" fill="none"/><use xlink:href="#d" transform="matrix(1,0,0,1,920,380) translate(63.48765432098766 17.77777777777778)"/><path d="M1760 296c0-3.3 2.7-6 6-6h148c3.3 0 6 2.7 6 6v78c0 3.3-2.7 6-6 6h-148c-3.3 0-6-2.7-6-6z" stroke="#5e5e5e" stroke-width="3" fill="#fff"/><use xlink:href="#e" transform="matrix(1,0,0,1,1760,290) translate(45.529999999999994 48.15)"/><path d="M2160 296c0-3.3 2.7-6 6-6h148c3.3 0 6 2.7 6 6v78c0 3.3-2.7 6-6 6h-148c-3.3 0-6-2.7-6-6z" stroke="#5e5e5e" stroke-width="3" fill="#fff"/><use xlink:href="#f" transform="matrix(1,0,0,1,2160,290) translate(45.05499999999999 48.15)"/><path d="M2600 296c0-3.3 2.7-6 6-6h148c3.3 0 6 2.7 6 6v78c0 3.3-2.7 6-6 6h-148c-3.3 0-6-2.7-6-6z" stroke="#5e5e5e" stroke-width="3" fill="#fff"/><use xlink:href="#g" transform="matrix(1,0,0,1,2600,290) translate(72.50500000000001 48.15)"/><path d="M580 846c0-3.3 2.7-6 6-6h28c3.3 0 6 2.7 6 6v368c0 3.3-2.7 6-6 6h-28c-3.3 0-6-2.7-6-6zM980 1086c0-3.3 2.7-6 6-6h28c3.3 0 6 2.7 6 6v68c0 3.3-2.7 6-6 6h-28c-3.3 0-6-2.7-6-6zM1380 846c0-3.3 2.7-6 6-6h28c3.3 0 6 2.7 6 6v288c0 3.3-2.7 6-6 6h-28c-3.3 0-6-2.7-6-6zM1820 846c0-3.3 2.7-6 6-6h28c3.3 0 6 2.7 6 6v148c0 3.3-2.7 6-6 6h-28c-3.3 0-6-2.7-6-6zM2220 1046c0-3.3 2.7-6 6-6h28c3.3 0 6 2.7 6 6v68c0 3.3-2.7 6-6 6h-28c-3.3 0-6-2.7-6-6zM2660 846c0-3.3 2.7-6 6-6h28c3.3 0 6 2.7 6 6v48c0 3.3-2.7 6-6 6h-28c-3.3 0-6-2.7-6-6z" stroke="#5e5e5e" stroke-width="3" fill="#fff"/><path d="M2680 382.5v10.1m0 10.12v20.22m0 10.12v20.22m0 10.1v20.23m0 10.12v20.22m0 10.12v20.22m0 10.1v20.23m0 10.12v20.22m0 10.12v20.22m0 10.1v20.23m0 10.12v20.22m0 10.12v20.22m0 10.1v20.23m0 10.12v20.22m0 10.12v20.22m0 10.1v10.12" stroke="#5e5e5e" stroke-width="2" fill="none"/><path d="M2681 382.53h-2v-1.03h2zM2681 838.5h-2v-1.03h2z" fill="#5e5e5e"/><path d="M2240 382.5v9.92m0 9.93v19.85m0 9.92v19.85m0 9.92v19.84m0 9.93v19.85m0 9.92v19.85m0 9.9v19.86m0 9.92v19.85m0 9.93v19.85m0 9.93v19.85m0 9.92v19.85m0 9.93v19.84m0 9.93v19.85m0 9.92v19.85m0 9.92v19.84m0 9.93v19.85m0 9.92v19.85m0 9.9v19.86m0 9.92v19.85m0 9.93v19.85m0 9.93v19.85m0 9.92v19.85m0 9.93v9.92" stroke="#5e5e5e" stroke-width="2" fill="none"/><path d="M2241 382.53h-2v-1.03h2zM2241 1038.5h-2v-1.03h2z" fill="#5e5e5e"/><path d="M1840 382.5v10.1m0 10.12v20.22m0 10.12v20.22m0 10.1v20.23m0 10.12v20.22m0 10.12v20.22m0 10.1v20.23m0 10.12v20.22m0 10.12v20.22m0 10.1v20.23m0 10.12v20.22m0 10.12v20.22m0 10.1v20.23m0 10.12v20.22m0 10.12v20.22m0 10.1v10.12" stroke="#5e5e5e" stroke-width="2" fill="none"/><path d="M1841 382.53h-2v-1.03h2zM1841 838.5h-2v-1.03h2z" fill="#5e5e5e"/><path d="M1382.67 382.5v10.13m0 10.13v20.26m0 10.13v20.26m0 10.14v20.26m0 10.13v20.26m0 10.12v20.26m0 10.13v20.27m0 10.13v20.26m0 10.13v20.25m0 10.13v20.26m0 10.13v20.26m0 10.13v20.26m0 10.13v20.26m0 10.14v20.26m0 10.13v20.26m0 10.12v10.13" stroke="#5e5e5e" stroke-width="2" fill="none"/><path d="M1383.67 382.53h-2v-1.03h2zM1383.67 839.08l-1.48.4-.53.52v-1.68h2z" fill="#5e5e5e"/><path d="M1000 381.52v9.66m0 9.67v19.33m0 9.67v19.33m0 9.67v19.33m0 9.67v19.33m0 9.67v19.33m0 9.67v19.33m0 9.67v19.33m0 9.67v19.33m0 9.66v19.34m0 9.66v19.34m0 9.66v19.34m0 9.66v19.35m0 9.66v19.33m0 9.67v19.33m0 9.67v19.33m0 9.67v19.33m0 9.67v19.33m0 9.67v19.33m0 9.67v19.33m0 9.67v19.33m0 9.67v19.33m0 9.66v19.34m0 9.66v19.34m0 9.66v9.67" stroke="#5e5e5e" stroke-width="2" fill="none"/><path d="M999.7 380.47l1.3.2v.87h-2v-1.25zM1001 1078.5h-2v-1.03h2z" fill="#5e5e5e"/><path d="M600 682.5v10.33m0 10.34v20.66m0 10.34v20.66m0 10.34v20.66m0 10.34v20.66m0 10.34v10.33" stroke="#5e5e5e" stroke-width="2" fill="none"/><path d="M601 682.53h-2v-1.03h2zM601 838.5h-2v-1.03h2z" fill="#5e5e5e"/><path d="M600 557.5v-10.43m0-10.44v-20.86m0-10.44v-20.86m0-10.44v-20.86m0-10.44v-20.86m0-10.44V401" stroke="#5e5e5e" stroke-width="2" fill="none"/><path d="M601 558.5h-2v-1.03h2z" fill="#5e5e5e"/><path d="M600 401.03V400" stroke="#5e5e5e" stroke-width="2" fill="none"/><path d="M180 846c0-3.3 2.7-6 6-6h28c3.3 0 6 2.7 6 6v428c0 3.3-2.7 6-6 6h-28c-3.3 0-6-2.7-6-6zM180 566c0-3.3 2.7-6 6-6h28c3.3 0 6 2.7 6 6v148c0 3.3-2.7 6-6 6h-28c-3.3 0-6-2.7-6-6z" stroke="#5e5e5e" stroke-width="3" fill="#fff"/><path d="M201 557.5h-2v-10.64h2zm0-21.27h-2v-21.28h2zm0-31.92h-2v-21.26h2zm0-31.9h-2v-21.27h2zm0-31.9h-2V419.2h2zm0-31.92h-2v-5.9h2zm0-31.9h-2v-21.3h2zm0-31.92h-2v-10.64h2z" fill="#5e5e5e"/><path d="M201 558.5h-2v-1.03h2zM201 334.15h-2v-4.03h2z" fill="#5e5e5e"/><use xlink:href="#h" transform="matrix(1,0,0,1,194.59259259259258,381.3333333333333) translate(0 14.222222222222223)"/><path d="M200 837.5v-9.58m0-9.6v-19.15m0-9.6v-19.15m0-9.6v-19.15m0-9.6v-9.57" stroke="#5e5e5e" stroke-width="2" fill="none"/><path d="M201 838.5h-2v-1.03h2zM201 722.53h-2v-1.03h2z" fill="#5e5e5e"/><path d="M221.64 562.6h339.22" stroke="#5e5e5e" stroke-width="2" fill="none"/><path d="M221.66 563.6h-.75l-.38-1.4-.6-.6h1.74z" fill="#5e5e5e"/><path d="M576.13 562.6l-14.27 4.64v-9.27z" stroke="#5e5e5e" stroke-width="2" fill="#5e5e5e"/><use xlink:href="#i" transform="matrix(1,0,0,1,318.12345679012344,537.2708384494034) translate(0 14.222222222222223)"/><use xlink:href="#j" transform="matrix(1,0,0,1,318.12345679012344,537.2708384494034) translate(64.19753086419755 14.222222222222223)"/><use xlink:href="#k" transform="matrix(1,0,0,1,318.12345679012344,537.2708384494034) translate(89.82716049382718 14.222222222222223)"/><path d="M222.5 845.8H560" stroke="#5e5e5e" stroke-width="2" fill="none"/><path d="M222.53 846.8h-1.03v-1l-.27-1h1.3z" fill="#5e5e5e"/><path d="M575.26 845.8L561 850.44v-9.27z" stroke="#5e5e5e" stroke-width="2" fill="#5e5e5e"/><use xlink:href="#l" transform="matrix(1,0,0,1,308.2962962962963,820.4673689628675) translate(0 14.222222222222223)"/><use xlink:href="#m" transform="matrix(1,0,0,1,308.2962962962963,820.4673689628675) translate(90.71604938271605 14.222222222222223)"/><use xlink:href="#n" transform="matrix(1,0,0,1,308.2962962962963,820.4673689628675) translate(116.34567901234568 14.222222222222223)"/><path d="M622.5 1093.33H960" stroke="#5e5e5e" stroke-width="2" fill="none"/><path d="M622.53 1094.33h-1.03v-2h1.03z" fill="#5e5e5e"/><path d="M975.26 1093.33l-14.26 4.64v-9.27z" stroke="#5e5e5e" stroke-width="2" fill="#5e5e5e"/><use xlink:href="#o" transform="matrix(1,0,0,1,727.0617283950617,1067.9999999999998) translate(0 14.222222222222223)"/><use xlink:href="#p" transform="matrix(1,0,0,1,727.0617283950617,1067.9999999999998) translate(83.80246913580248 14.222222222222223)"/><use xlink:href="#q" transform="matrix(1,0,0,1,727.0617283950617,1067.9999999999998) translate(99.55555555555557 14.222222222222223)"/><path d="M622.5 849.33H1360" stroke="#5e5e5e" stroke-width="2" fill="none"/><path d="M622.53 850.33h-1.03v-2h1.03z" fill="#5e5e5e"/><path d="M1375.26 849.33l-14.26 4.64v-9.27z" stroke="#5e5e5e" stroke-width="2" fill="#5e5e5e"/><path d="M1422.5 845.8H1800" stroke="#5e5e5e" stroke-width="2" fill="none"/><path d="M1422.53 846.8h-1.03v-1l-.27-1h1.3z" fill="#5e5e5e"/><path d="M1815.26 845.8l-14.26 4.64v-9.27z" stroke="#5e5e5e" stroke-width="2" fill="#5e5e5e"/><use xlink:href="#r" transform="matrix(1,0,0,1,1573.7037037037037,820.4673689628676) translate(0 14.222222222222223)"/><path d="M1818.18 996.72H1440" stroke="#5e5e5e" stroke-width="2" fill="none"/><path d="M1819.45 997.72h-1.3v-2h.76z" fill="#5e5e5e"/><path d="M1424.74 996.72l14.26-4.63v9.26z" stroke="#5e5e5e" stroke-width="2" fill="#5e5e5e"/><path d="M2657.72 895h-10.2m-10.2 0h-20.38m-10.2 0h-20.4m-10.18 0h-20.4m-10.2 0h-20.38m-10.2 0h-20.38m-10.2 0H2464m-10.18 0h-20.4m-10.2 0h-20.38m-10.2 0h-20.38m-10.2 0h-20.4m-10.18 0h-20.4m-10.2 0h-20.38m-10.2 0H2250.37m-9.74 0h-19.5m-9.74 0h-19.5m-9.74 0h-19.5m-9.74 0h-19.5m-9.74 0h-19.5m-9.74 0h-19.5m-9.74 0h-19.5m-9.74 0h-19.5m-9.73 0h-19.5m-9.73 0h-19.5m-9.74 0h-19.5m-9.74 0h-19.5m-9.75 0H1880" stroke="#5e5e5e" stroke-width="2" fill="none"/><path d="M2658.5 894.2l.5 1.8h-1.3v-2h.8z" fill="#5e5e5e"/><path d="M1864.74 895l14.26-4.62v9.27z" stroke="#5e5e5e" stroke-width="2" fill="#5e5e5e"/><path d="M1862.06 844.18h778.37" stroke="#5e5e5e" stroke-width="2" fill="none"/><path d="M1862.1 845.18h-.77l-.54-2h1.3z" fill="#5e5e5e"/><path d="M2655.7 844.18l-14.27 4.64v-9.27z" stroke="#5e5e5e" stroke-width="2" fill="#5e5e5e"/><use xlink:href="#s" transform="matrix(1,0,0,1,2214.1481481481483,818.8493416348) translate(0 14.222222222222223)"/><path d="M1422.5 1049.33H2200" stroke="#5e5e5e" stroke-width="2" fill="none"/><path d="M1422.53 1050.33h-1.03v-2h1.03z" fill="#5e5e5e"/><path d="M2215.26 1049.33l-14.26 4.64v-9.27z" stroke="#5e5e5e" stroke-width="2" fill="#5e5e5e"/><g><use xlink:href="#t" transform="matrix(1,0,0,1,1792.8641975308642,1023.9999999999999) translate(0 14.222222222222223)"/></g><path d="M2219.17 1118.5h-10m-9.98 0h-20m-9.98 0h-19.98m-10 0h-19.96m-10 0h-19.97m-9.98 0h-19.98m-10 0h-19.97m-10 0h-19.97m-10 0h-19.96m-10 0h-19.97m-10 0h-19.97m-10 0h-19.97m-10 0h-19.97m-9.98 0h-19.98m-10 0h-19.97m-10 0h-19.97m-10 0h-19.97m-10 0h-19.98m-9.98 0h-19.98m-10 0h-19.97m-10 0h-19.98m-10 0h-19.97m-10 0h-19.96m-10 0h-19.98m-10 0h-19.97m-10 0H1460m-10 0H1440" stroke="#5e5e5e" stroke-width="2" fill="none"/><path fill="#5e5e5e"/><path d="M1424.74 1118.5l14.26-4.64v9.27z" stroke="#5e5e5e" stroke-width="2" fill="#5e5e5e"/><defs><path fill="#333" d="M212-179c-10-28-35-45-73-45-59 0-87 40-87 99 0 60 29 101 89 101 43 0 62-24 78-52l27 14C228-24 195 4 139 4 59 4 22-46 18-125c-6-104 99-153 187-111 19 9 31 26 39 46" id="u"/><path fill="#333" d="M141-36C126-15 110 5 73 4 37 3 15-17 15-53c-1-64 63-63 125-63 3-35-9-54-41-54-24 1-41 7-42 31l-33-3c5-37 33-52 76-52 45 0 72 20 72 64v82c-1 20 7 32 28 27v20c-31 9-61-2-59-35zM48-53c0 20 12 33 32 33 41-3 63-29 60-74-43 2-92-5-92 41" id="v"/><path fill="#333" d="M85-194c31 0 48 13 60 33l-1-100h32l1 261h-30c-2-10 0-23-3-31C134-8 116 4 85 4 32 4 16-35 15-94c0-66 23-100 70-100zm9 24c-40 0-46 34-46 75 0 40 6 74 45 74 42 0 51-32 51-76 0-42-9-74-50-73" id="w"/><path fill="#333" d="M135-143c-3-34-86-38-87 0 15 53 115 12 119 90S17 21 10-45l28-5c4 36 97 45 98 0-10-56-113-15-118-90-4-57 82-63 122-42 12 7 21 19 24 35" id="x"/><path fill="#333" d="M59-47c-2 24 18 29 38 22v24C64 9 27 4 27-40v-127H5v-23h24l9-43h21v43h35v23H59v120" id="y"/><path fill="#333" d="M114-163C36-179 61-72 57 0H25l-1-190h30c1 12-1 29 2 39 6-27 23-49 58-41v29" id="z"/><path fill="#333" d="M100-194c62-1 85 37 85 99 1 63-27 99-86 99S16-35 15-95c0-66 28-99 85-99zM99-20c44 1 53-31 53-75 0-43-8-75-51-75s-53 32-53 75 10 74 51 75" id="A"/><g id="a"><use transform="matrix(0.06172839506172839,0,0,0.06172839506172839,0,0)" xlink:href="#u"/><use transform="matrix(0.06172839506172839,0,0,0.06172839506172839,15.987654320987653,0)" xlink:href="#v"/><use transform="matrix(0.06172839506172839,0,0,0.06172839506172839,28.333333333333332,0)" xlink:href="#w"/><use transform="matrix(0.06172839506172839,0,0,0.06172839506172839,40.67901234567901,0)" xlink:href="#v"/><use transform="matrix(0.06172839506172839,0,0,0.06172839506172839,53.02469135802469,0)" xlink:href="#x"/><use transform="matrix(0.06172839506172839,0,0,0.06172839506172839,64.1358024691358,0)" xlink:href="#y"/><use transform="matrix(0.06172839506172839,0,0,0.06172839506172839,70.30864197530863,0)" xlink:href="#z"/><use transform="matrix(0.06172839506172839,0,0,0.06172839506172839,77.65432098765432,0)" xlink:href="#A"/></g><path fill="#333" d="M84 4C-5 8 30-112 23-190h32v120c0 31 7 50 39 49 72-2 45-101 50-169h31l1 190h-30c-1-10 1-25-2-33-11 22-28 36-60 37" id="B"/><path fill="#333" d="M24-231v-30h32v30H24zM24 0v-190h32V0H24" id="C"/><g id="b"><use transform="matrix(0.06172839506172839,0,0,0.06172839506172839,0,0)" xlink:href="#B"/><use transform="matrix(0.06172839506172839,0,0,0.06172839506172839,12.345679012345679,0)" xlink:href="#x"/><use transform="matrix(0.06172839506172839,0,0,0.06172839506172839,23.45679012345679,0)" xlink:href="#B"/><use transform="matrix(0.06172839506172839,0,0,0.06172839506172839,35.80246913580247,0)" xlink:href="#v"/><use transform="matrix(0.06172839506172839,0,0,0.06172839506172839,48.148148148148145,0)" xlink:href="#z"/><use transform="matrix(0.06172839506172839,0,0,0.06172839506172839,55.49382716049382,0)" xlink:href="#C"/><use transform="matrix(0.06172839506172839,0,0,0.06172839506172839,60.37037037037037,0)" xlink:href="#A"/></g><path d="M24 0v-261h32V0H24" id="D"/><path d="M100-194c62-1 85 37 85 99 1 63-27 99-86 99S16-35 15-95c0-66 28-99 85-99zM99-20c44 1 53-31 53-75 0-43-8-75-51-75s-53 32-53 75 10 74 51 75" id="E"/><path d="M177-190C167-65 218 103 67 71c-23-6-38-20-44-43l32-5c15 47 100 32 89-28v-30C133-14 115 1 83 1 29 1 15-40 15-95c0-56 16-97 71-98 29-1 48 16 59 35 1-10 0-23 2-32h30zM94-22c36 0 50-32 50-73 0-42-14-75-50-75-39 0-46 34-46 75s6 73 46 73" id="F"/><path d="M24-231v-30h32v30H24zM24 0v-190h32V0H24" id="G"/><path d="M117-194c89-4 53 116 60 194h-32v-121c0-31-8-49-39-48C34-167 62-67 57 0H25l-1-190h30c1 10-1 24 2 32 11-22 29-35 61-36" id="H"/><g id="c"><use transform="matrix(0.05,0,0,0.05,0,0)" xlink:href="#D"/><use transform="matrix(0.05,0,0,0.05,3.95,0)" xlink:href="#E"/><use transform="matrix(0.05,0,0,0.05,13.949999999999998,0)" xlink:href="#F"/><use transform="matrix(0.05,0,0,0.05,23.95,0)" xlink:href="#G"/><use transform="matrix(0.05,0,0,0.05,27.899999999999995,0)" xlink:href="#H"/><path d="M-.9 1.25h39.7v1.32H-.9z"/></g><path fill="#333" d="M117-194c89-4 53 116 60 194h-32v-121c0-31-8-49-39-48C34-167 62-67 57 0H25l-1-190h30c1 10-1 24 2 32 11-22 29-35 61-36" id="I"/><path fill="#333" d="M100-194c63 0 86 42 84 106H49c0 40 14 67 53 68 26 1 43-12 49-29l28 8c-11 28-37 45-77 45C44 4 14-33 15-96c1-61 26-98 85-98zm52 81c6-60-76-77-97-28-3 7-6 17-6 28h103" id="J"/><path fill="#333" d="M141 0L90-78 38 0H4l68-98-65-92h35l48 74 47-74h35l-64 92 68 98h-35" id="K"/><g id="d"><use transform="matrix(0.06172839506172839,0,0,0.06172839506172839,0,0)" xlink:href="#C"/><use transform="matrix(0.06172839506172839,0,0,0.06172839506172839,4.876543209876543,0)" xlink:href="#I"/><use transform="matrix(0.06172839506172839,0,0,0.06172839506172839,17.22222222222222,0)" xlink:href="#w"/><use transform="matrix(0.06172839506172839,0,0,0.06172839506172839,29.5679012345679,0)" xlink:href="#J"/><use transform="matrix(0.06172839506172839,0,0,0.06172839506172839,41.913580246913575,0)" xlink:href="#K"/></g><path d="M96-169c-40 0-48 33-48 73s9 75 48 75c24 0 41-14 43-38l32 2c-6 37-31 61-74 61-59 0-76-41-82-99-10-93 101-131 147-64 4 7 5 14 7 22l-32 3c-4-21-16-35-41-35" id="L"/><path d="M141-36C126-15 110 5 73 4 37 3 15-17 15-53c-1-64 63-63 125-63 3-35-9-54-41-54-24 1-41 7-42 31l-33-3c5-37 33-52 76-52 45 0 72 20 72 64v82c-1 20 7 32 28 27v20c-31 9-61-2-59-35zM48-53c0 20 12 33 32 33 41-3 63-29 60-74-43 2-92-5-92 41" id="M"/><path d="M85-194c31 0 48 13 60 33l-1-100h32l1 261h-30c-2-10 0-23-3-31C134-8 116 4 85 4 32 4 16-35 15-94c0-66 23-100 70-100zm9 24c-40 0-46 34-46 75 0 40 6 74 45 74 42 0 51-32 51-76 0-42-9-74-50-73" id="N"/><path d="M135-143c-3-34-86-38-87 0 15 53 115 12 119 90S17 21 10-45l28-5c4 36 97 45 98 0-10-56-113-15-118-90-4-57 82-63 122-42 12 7 21 19 24 35" id="O"/><path d="M59-47c-2 24 18 29 38 22v24C64 9 27 4 27-40v-127H5v-23h24l9-43h21v43h35v23H59v120" id="P"/><path d="M114-163C36-179 61-72 57 0H25l-1-190h30c1 12-1 29 2 39 6-27 23-49 58-41v29" id="Q"/><g id="e"><use transform="matrix(0.05,0,0,0.05,0,0)" xlink:href="#L"/><use transform="matrix(0.05,0,0,0.05,9,0)" xlink:href="#M"/><use transform="matrix(0.05,0,0,0.05,19,0)" xlink:href="#N"/><use transform="matrix(0.05,0,0,0.05,29,0)" xlink:href="#M"/><use transform="matrix(0.05,0,0,0.05,39,0)" xlink:href="#O"/><use transform="matrix(0.05,0,0,0.05,48,0)" xlink:href="#P"/><use transform="matrix(0.05,0,0,0.05,53,0)" xlink:href="#Q"/><use transform="matrix(0.05,0,0,0.05,58.95,0)" xlink:href="#E"/><path d="M-.9 1.25h70.75v1.32H-.9z"/></g><path d="M84 4C-5 8 30-112 23-190h32v120c0 31 7 50 39 49 72-2 45-101 50-169h31l1 190h-30c-1-10 1-25-2-33-11 22-28 36-60 37" id="R"/><path d="M205 0l-28-72H64L36 0H1l101-248h38L239 0h-34zm-38-99l-47-123c-12 45-31 82-46 123h93" id="S"/><path d="M30-248c118-7 216 8 213 122C240-48 200 0 122 0H30v-248zM63-27c89 8 146-16 146-99s-60-101-146-95v194" id="T"/><g id="f"><use transform="matrix(0.05,0,0,0.05,0,0)" xlink:href="#R"/><use transform="matrix(0.05,0,0,0.05,10,0)" xlink:href="#O"/><use transform="matrix(0.05,0,0,0.05,19,0)" xlink:href="#R"/><use transform="matrix(0.05,0,0,0.05,29,0)" xlink:href="#M"/><use transform="matrix(0.05,0,0,0.05,39,0)" xlink:href="#Q"/><use transform="matrix(0.05,0,0,0.05,44.95,0)" xlink:href="#S"/><use transform="matrix(0.05,0,0,0.05,56.95,0)" xlink:href="#T"/><path d="M-.9 1.25h71.7v1.32H-.9z"/></g><path d="M33 0v-38h34V0H33" id="U"/><g id="g"><use transform="matrix(0.05,0,0,0.05,0,0)" xlink:href="#U"/><use transform="matrix(0.05,0,0,0.05,5,0)" xlink:href="#U"/><use transform="matrix(0.05,0,0,0.05,10,0)" xlink:href="#U"/><path d="M-.9 1.25h16.8v1.32H-.9z"/></g><path fill="#333" d="M110-194c64 0 96 36 96 99 0 64-35 99-97 99-61 0-95-36-95-99 0-62 34-99 96-99zm-1 164c35 0 45-28 45-65 0-40-10-65-43-65-34 0-45 26-45 65 0 36 10 65 43 65" id="V"/><use transform="matrix(0.04938271604938272,0,0,0.04938271604938272,0,0)" xlink:href="#V" id="h"/><path fill="#333" d="M133-34C117-15 103 5 69 4 32 3 11-16 11-54c-1-60 55-63 116-61 1-26-3-47-28-47-18 1-26 9-28 27l-52-2c7-38 36-58 82-57s74 22 75 68l1 82c-1 14 12 18 25 15v27c-30 8-71 5-69-32zm-48 3c29 0 43-24 42-57-32 0-66-3-65 30 0 17 8 27 23 27" id="W"/><path fill="#333" d="M190-63c-7 42-38 67-86 67-59 0-84-38-90-98-12-110 154-137 174-36l-49 2c-2-19-15-32-35-32-30 0-35 28-38 64-6 74 65 87 74 30" id="X"/><path fill="#333" d="M185-48c-13 30-37 53-82 52C43 2 14-33 14-96s30-98 90-98c62 0 83 45 84 108H66c0 31 8 55 39 56 18 0 30-7 34-22zm-45-69c5-46-57-63-70-21-2 6-4 13-4 21h74" id="Y"/><path fill="#333" d="M137-138c1-29-70-34-71-4 15 46 118 7 119 86 1 83-164 76-172 9l43-7c4 19 20 25 44 25 33 8 57-30 24-41C81-84 22-81 20-136c-2-80 154-74 161-7" id="Z"/><g id="i"><use transform="matrix(0.04938271604938272,0,0,0.04938271604938272,0,0)" xlink:href="#W"/><use transform="matrix(0.04938271604938272,0,0,0.04938271604938272,9.876543209876544,0)" xlink:href="#X"/><use transform="matrix(0.04938271604938272,0,0,0.04938271604938272,19.75308641975309,0)" xlink:href="#Y"/><use transform="matrix(0.04938271604938272,0,0,0.04938271604938272,29.629629629629633,0)" xlink:href="#Z"/><use transform="matrix(0.04938271604938272,0,0,0.04938271604938272,39.50617283950618,0)" xlink:href="#Z"/><use transform="matrix(0.04938271604938272,0,0,0.04938271604938272,49.38271604938272,0)" xlink:href="#W"/></g><g id="j"><use transform="matrix(0.04938271604938272,0,0,0.04938271604938272,0,0)" xlink:href="#W"/><use transform="matrix(0.04938271604938272,0,0,0.04938271604938272,9.876543209876544,0)" xlink:href="#V"/></g><path fill="#333" d="M88-194c31-1 46 15 58 34l-1-101h50l1 261h-48c-2-10 0-23-3-31C134-8 116 4 84 4 32 4 16-41 15-95c0-56 19-97 73-99zm17 164c33 0 40-30 41-66 1-37-9-64-41-64s-38 30-39 65c0 43 13 65 39 65" id="aa"/><path fill="#333" d="M115-3C79 11 28 4 28-45v-112H4v-33h27l15-45h31v45h36v33H77v99c-1 23 16 31 38 25v30" id="ab"/><path fill="#333" d="M135-150c-39-12-60 13-60 57V0H25l-1-190h47c2 13-1 29 3 40 6-28 27-53 61-41v41" id="ac"/><g id="k"><use transform="matrix(0.04938271604938272,0,0,0.04938271604938272,0,0)" xlink:href="#X"/><use transform="matrix(0.04938271604938272,0,0,0.04938271604938272,9.876543209876544,0)" xlink:href="#W"/><use transform="matrix(0.04938271604938272,0,0,0.04938271604938272,19.75308641975309,0)" xlink:href="#aa"/><use transform="matrix(0.04938271604938272,0,0,0.04938271604938272,30.567901234567906,0)" xlink:href="#W"/><use transform="matrix(0.04938271604938272,0,0,0.04938271604938272,40.44444444444445,0)" xlink:href="#Z"/><use transform="matrix(0.04938271604938272,0,0,0.04938271604938272,50.320987654320994,0)" xlink:href="#ab"/><use transform="matrix(0.04938271604938272,0,0,0.04938271604938272,56.19753086419754,0)" xlink:href="#ac"/><use transform="matrix(0.04938271604938272,0,0,0.04938271604938272,63.111111111111114,0)" xlink:href="#V"/></g><path fill="#333" d="M135-194c53 0 70 44 70 98 0 56-19 98-73 100-31 1-45-17-59-34 3 33 2 69 2 105H25l-1-265h48c2 10 0 23 3 31 11-24 29-35 60-35zM114-30c33 0 39-31 40-66 0-38-9-64-40-64-56 0-55 130 0 130" id="ad"/><path fill="#333" d="M135-194c87-1 58 113 63 194h-50c-7-57 23-157-34-157-59 0-34 97-39 157H25l-1-190h47c2 12-1 28 3 38 12-26 28-41 61-42" id="ae"/><path fill="#333" d="M114-157C55-157 80-60 75 0H25v-261h50l-1 109c12-26 28-41 61-42 86-1 58 113 63 194h-50c-7-57 23-157-34-157" id="af"/><g id="l"><use transform="matrix(0.04938271604938272,0,0,0.04938271604938272,0,0)" xlink:href="#ad"/><use transform="matrix(0.04938271604938272,0,0,0.04938271604938272,10.814814814814815,0)" xlink:href="#ac"/><use transform="matrix(0.04938271604938272,0,0,0.04938271604938272,17.728395061728396,0)" xlink:href="#Y"/><use transform="matrix(0.04938271604938272,0,0,0.04938271604938272,27.60493827160494,0)" xlink:href="#Y"/><use transform="matrix(0.04938271604938272,0,0,0.04938271604938272,37.48148148148148,0)" xlink:href="#ae"/><use transform="matrix(0.04938271604938272,0,0,0.04938271604938272,48.2962962962963,0)" xlink:href="#X"/><use transform="matrix(0.04938271604938272,0,0,0.04938271604938272,58.17283950617284,0)" xlink:href="#af"/><use transform="matrix(0.04938271604938272,0,0,0.04938271604938272,68.98765432098766,0)" xlink:href="#Y"/><use transform="matrix(0.04938271604938272,0,0,0.04938271604938272,78.8641975308642,0)" xlink:href="#ac"/></g><g id="m"><use transform="matrix(0.04938271604938272,0,0,0.04938271604938272,0,0)" xlink:href="#V"/><use transform="matrix(0.04938271604938272,0,0,0.04938271604938272,10.814814814814815,0)" xlink:href="#Z"/></g><path fill="#333" d="M220-157c-53 9-28 100-34 157h-49v-107c1-27-5-49-29-50C55-147 81-57 75 0H25l-1-190h47c2 12-1 28 3 38 10-53 101-56 108 0 13-22 24-43 59-42 82 1 51 116 57 194h-49v-107c-1-25-5-48-29-50" id="ag"/><g id="n"><use transform="matrix(0.04938271604938272,0,0,0.04938271604938272,0,0)" xlink:href="#X"/><use transform="matrix(0.04938271604938272,0,0,0.04938271604938272,9.876543209876544,0)" xlink:href="#W"/><use transform="matrix(0.04938271604938272,0,0,0.04938271604938272,19.75308641975309,0)" xlink:href="#ag"/><use transform="matrix(0.04938271604938272,0,0,0.04938271604938272,35.55555555555556,0)" xlink:href="#ad"/><use transform="matrix(0.04938271604938272,0,0,0.04938271604938272,46.370370370370374,0)" xlink:href="#V"/><use transform="matrix(0.04938271604938272,0,0,0.04938271604938272,57.18518518518519,0)" xlink:href="#Z"/></g><path fill="#333" d="M25-224v-37h50v37H25zM25 0v-190h50V0H25" id="ah"/><g id="o"><use transform="matrix(0.04938271604938272,0,0,0.04938271604938272,0,0)" xlink:href="#ac"/><use transform="matrix(0.04938271604938272,0,0,0.04938271604938272,6.913580246913581,0)" xlink:href="#Y"/><use transform="matrix(0.04938271604938272,0,0,0.04938271604938272,16.790123456790127,0)" xlink:href="#aa"/><use transform="matrix(0.04938271604938272,0,0,0.04938271604938272,27.604938271604947,0)" xlink:href="#ah"/><use transform="matrix(0.04938271604938272,0,0,0.04938271604938272,32.543209876543216,0)" xlink:href="#X"/><use transform="matrix(0.04938271604938272,0,0,0.04938271604938272,42.41975308641976,0)" xlink:href="#ah"/><use transform="matrix(0.04938271604938272,0,0,0.04938271604938272,47.35802469135803,0)" xlink:href="#V"/><use transform="matrix(0.04938271604938272,0,0,0.04938271604938272,58.17283950617284,0)" xlink:href="#ae"/><use transform="matrix(0.04938271604938272,0,0,0.04938271604938272,68.98765432098766,0)" xlink:href="#W"/></g><use transform="matrix(0.04938271604938272,0,0,0.04938271604938272,0,0)" xlink:href="#ad" id="p"/><path fill="#333" d="M144 0l-44-69L55 0H2l70-98-66-92h53l41 62 40-62h54l-67 91 71 99h-54" id="ai"/><g id="q"><use transform="matrix(0.04938271604938272,0,0,0.04938271604938272,0,0)" xlink:href="#ah"/><use transform="matrix(0.04938271604938272,0,0,0.04938271604938272,4.938271604938272,0)" xlink:href="#ae"/><use transform="matrix(0.04938271604938272,0,0,0.04938271604938272,15.753086419753087,0)" xlink:href="#aa"/><use transform="matrix(0.04938271604938272,0,0,0.04938271604938272,26.567901234567902,0)" xlink:href="#Y"/><use transform="matrix(0.04938271604938272,0,0,0.04938271604938272,36.44444444444444,0)" xlink:href="#ai"/></g><path fill="#333" d="M195-6C206 82 75 100 31 46c-4-6-6-13-8-21l49-6c3 16 16 24 34 25 40 0 42-37 40-79-11 22-30 35-61 35-53 0-70-43-70-97 0-56 18-96 73-97 30 0 46 14 59 34l2-30h47zm-90-29c32 0 41-27 41-63 0-35-9-62-40-62-32 0-39 29-40 63 0 36 9 62 39 62" id="aj"/><path fill="#333" d="M238-95c0 69-44 99-111 99C63 4 22-25 22-93v-155h51v151c-1 38 19 59 55 60 90 1 49-130 58-211h52v153" id="ak"/><path fill="#333" d="M85 4C-2 5 27-109 22-190h50c7 57-23 150 33 157 60-5 35-97 40-157h50l1 190h-47c-2-12 1-28-3-38-12 25-28 42-61 42" id="al"/><g id="r"><use transform="matrix(0.04938271604938272,0,0,0.04938271604938272,0,0)" xlink:href="#aj"/><use transform="matrix(0.04938271604938272,0,0,0.04938271604938272,10.814814814814815,0)" xlink:href="#Y"/><use transform="matrix(0.04938271604938272,0,0,0.04938271604938272,20.69135802469136,0)" xlink:href="#ab"/><use transform="matrix(0.04938271604938272,0,0,0.04938271604938272,26.567901234567902,0)" xlink:href="#ak"/><use transform="matrix(0.04938271604938272,0,0,0.04938271604938272,39.35802469135803,0)" xlink:href="#Z"/><use transform="matrix(0.04938271604938272,0,0,0.04938271604938272,49.23456790123458,0)" xlink:href="#al"/><use transform="matrix(0.04938271604938272,0,0,0.04938271604938272,60.0493827160494,0)" xlink:href="#W"/><use transform="matrix(0.04938271604938272,0,0,0.04938271604938272,69.92592592592594,0)" xlink:href="#ac"/><use transform="matrix(0.04938271604938272,0,0,0.04938271604938272,76.83950617283952,0)" xlink:href="#ah"/><use transform="matrix(0.04938271604938272,0,0,0.04938271604938272,81.7777777777778,0)" xlink:href="#V"/></g><path fill="#333" d="M230 0l2-204L168 0h-37L68-204 70 0H24v-248h70l56 185 57-185h69V0h-46" id="am"/><g id="s"><use transform="matrix(0.04938271604938272,0,0,0.04938271604938272,0,0)" xlink:href="#am"/><use transform="matrix(0.04938271604938272,0,0,0.04938271604938272,14.765432098765434,0)" xlink:href="#Y"/><use transform="matrix(0.04938271604938272,0,0,0.04938271604938272,24.641975308641978,0)" xlink:href="#ae"/><use transform="matrix(0.04938271604938272,0,0,0.04938271604938272,35.45679012345679,0)" xlink:href="#Z"/><use transform="matrix(0.04938271604938272,0,0,0.04938271604938272,45.333333333333336,0)" xlink:href="#W"/><use transform="matrix(0.04938271604938272,0,0,0.04938271604938272,55.20987654320988,0)" xlink:href="#aj"/><use transform="matrix(0.04938271604938272,0,0,0.04938271604938272,66.0246913580247,0)" xlink:href="#Y"/><use transform="matrix(0.04938271604938272,0,0,0.04938271604938272,75.90123456790124,0)" xlink:href="#ag"/></g><g id="t"><use transform="matrix(0.04938271604938272,0,0,0.04938271604938272,0,0)" xlink:href="#ah"/><use transform="matrix(0.04938271604938272,0,0,0.04938271604938272,4.938271604938272,0)" xlink:href="#ae"/><use transform="matrix(0.04938271604938272,0,0,0.04938271604938272,15.753086419753087,0)" xlink:href="#Z"/><use transform="matrix(0.04938271604938272,0,0,0.04938271604938272,25.629629629629633,0)" xlink:href="#Y"/><use transform="matrix(0.04938271604938272,0,0,0.04938271604938272,35.50617283950618,0)" xlink:href="#ac"/><use transform="matrix(0.04938271604938272,0,0,0.04938271604938272,42.41975308641976,0)" xlink:href="#ah"/><use transform="matrix(0.04938271604938272,0,0,0.04938271604938272,47.35802469135803,0)" xlink:href="#ac"/></g></defs></g></svg>