<svg xmlns="http://www.w3.org/2000/svg" xmlns:xlink="http://www.w3.org/1999/xlink" xmlns:lucid="lucid" width="2480.73" height="1474.86"><g transform="translate(60.729290527150226 28.86114414057339)" lucid:page-tab-id="0_0"><path d="M-1806.4-1259.2h5483.2v3841.6h-5483.2z" fill="#fff"/><path d="M-40.73-2.86c0-3.3 2.7-6 6-6h228c3.3 0 6 2.7 6 6v48c0 3.3-2.7 6-6 6h-228c-3.3 0-6-2.7-6-6z" fill="none"/><use xlink:href="#a" transform="matrix(1,0,0,1,-40.729290527150226,-8.86114414057339) translate(65.18518518518519 34.44444444444444)"/><use xlink:href="#b" transform="matrix(1,0,0,1,-40.729290527150226,-8.86114414057339) translate(128.02469135802468 34.44444444444444)"/><path d="M239.75 89.75c0 5.38-4.37 9.75-9.75 9.75s-9.75-4.37-9.75-9.75S224.62 80 230 80s9.75 4.37 9.75 9.75z" stroke="#5e5e5e" stroke-width="3" fill="#fff"/><path d="M230 99.5v21.3c0 3.3 1.86 7.94 4.16 10.32L260 158m-30-31.2L200 158m0-48.75h60" stroke="#5e5e5e" stroke-width="3" fill="none"/><path d="M200 86c0-3.3 2.7-6 6-6h48c3.3 0 6 2.7 6 6v88c0 3.3-2.7 6-6 6h-48c-3.3 0-6-2.7-6-6z" fill="none"/><use xlink:href="#c" transform="matrix(1,0,0,1,120,158) translate(73.64197530864197 17.77777777777778)"/><path d="M1200 96c0-3.3 2.7-6 6-6h148c3.3 0 6 2.7 6 6v48c0 3.3-2.7 6-6 6h-148c-3.3 0-6-2.7-6-6z" stroke="#5e5e5e" stroke-width="3" fill="#fff"/><use xlink:href="#d" transform="matrix(1,0,0,1,1212,102) translate(3.339506172839492 22.27777777777778)"/><path d="M1560 86c0-3.3 2.7-6 6-6h148c3.3 0 6 2.7 6 6v48c0 3.3-2.7 6-6 6h-148c-3.3 0-6-2.7-6-6z" stroke="#5e5e5e" stroke-width="3" fill="#fff"/><use xlink:href="#e" transform="matrix(1,0,0,1,1572,92) translate(14.419753086419753 22.27777777777778)"/><path d="M1900 86c0-3.3 2.7-6 6-6h148c3.3 0 6 2.7 6 6v48c0 3.3-2.7 6-6 6h-148c-3.3 0-6-2.7-6-6z" stroke="#5e5e5e" stroke-width="3" fill="#fff"/><use xlink:href="#f" transform="matrix(1,0,0,1,1912,92) translate(29.820987654320987 22.27777777777778)"/><path d="M2240 86c0-3.3 2.7-6 6-6h148c3.3 0 6 2.7 6 6v48c0 3.3-2.7 6-6 6h-148c-3.3 0-6-2.7-6-6z" stroke="#5e5e5e" stroke-width="3" fill="#fff"/><use xlink:href="#f" transform="matrix(1,0,0,1,2252,92) translate(29.820987654320987 22.27777777777778)"/><path d="M210 266c0-3.3 2.7-6 6-6h28c3.3 0 6 2.7 6 6v188c0 3.3-2.7 6-6 6h-28c-3.3 0-6-2.7-6-6zM1260 606c0-3.3 2.7-6 6-6h28c3.3 0 6 2.7 6 6v388c0 3.3-2.7 6-6 6h-28c-3.3 0-6-2.7-6-6zM500 266c0-3.3 2.7-6 6-6h28c3.3 0 6 2.7 6 6v108c0 3.3-2.7 6-6 6h-28c-3.3 0-6-2.7-6-6zM210 526c0-3.3 2.7-6 6-6h28c3.3 0 6 2.7 6 6v188c0 3.3-2.7 6-6 6h-28c-3.3 0-6-2.7-6-6zM1618.67 606c0-3.3 2.68-6 6-6h28c3.3 0 6 2.7 6 6v108c0 3.3-2.7 6-6 6h-28c-3.32 0-6-2.7-6-6zM1980 606c0-3.3 2.7-6 6-6h28c3.3 0 6 2.7 6 6v68c0 3.3-2.7 6-6 6h-28c-3.3 0-6-2.7-6-6zM1980 826c0-3.3 2.7-6 6-6h28c3.3 0 6 2.7 6 6v88c0 3.3-2.7 6-6 6h-28c-3.3 0-6-2.7-6-6zM2300 746c0-3.3 2.7-6 6-6h28c3.3 0 6 2.7 6 6v48c0 3.3-2.7 6-6 6h-28c-3.3 0-6-2.7-6-6zM580 125c0 19.33-22.4 35-50 35s-50-15.67-50-35 22.4-35 50-35 50 15.67 50 35z" stroke="#5e5e5e" stroke-width="3" fill="#fff"/><path d="M460 90v70m0-35h20" stroke="#5e5e5e" stroke-width="3" fill="none"/><use xlink:href="#g" transform="matrix(1,0,0,1,440,160) translate(63.48765432098766 17.77777777777778)"/><path d="M800 120c0 19.33-22.4 35-50 35s-50-15.67-50-35 22.4-35 50-35 50 15.67 50 35z" stroke="#5e5e5e" stroke-width="3" fill="#fff"/><path d="M680 85v70m0-35h20" stroke="#5e5e5e" stroke-width="3" fill="none"/><use xlink:href="#h" transform="matrix(1,0,0,1,660,155) translate(66.60493827160494 17.77777777777778)"/><path d="M1060 120c0 19.33-22.4 35-50 35s-50-15.67-50-35 22.4-35 50-35 50 15.67 50 35z" stroke="#5e5e5e" stroke-width="3" fill="#fff"/><path d="M940 85v70m0-35h20" stroke="#5e5e5e" stroke-width="3" fill="none"/><use xlink:href="#i" transform="matrix(1,0,0,1,920,155) translate(29.629629629629633 17.77777777777778)"/><path d="M720 526c0-3.3 2.7-6 6-6h28c3.3 0 6 2.7 6 6v68c0 3.3-2.7 6-6 6h-28c-3.3 0-6-2.7-6-6z" stroke="#5e5e5e" stroke-width="3" fill="#fff"/><path d="M520 161.23v5.38m0 5.38v10.76m0 5.37v10.76m0 5.38V215m0 5.37v10.75m0 5.38v10.75m0 5.37V258" stroke="#5e5e5e" fill="none"/><path d="M520.5 160.8v.45h-1v-.6zM520.5 258.5h-1v-.5h1z" fill="#5e5e5e"/><path d="M740 156.23v5.03m0 5.02v10.05m0 5.03v10.04m0 5.03v10.05m0 5.02v10.05m0 5.03v10.05m0 5.02v10.05m0 5.02v10.05m0 5.03v10.05m0 5.02v10.05m0 5.02V312m0 5.02v10.05m0 5.02v10.04m0 5.03v10.04m0 5.04v10.05m0 5v10.06m0 5.03v10.04m0 5.02v10.05m0 5.03v10.05m0 5.03v10.06m0 5.02v10.05m0 5.02v10.05m0 5.03v10.05m0 5.02v10.05m0 5.03V518" stroke="#5e5e5e" fill="none"/><path d="M740.5 155.8v.45h-1v-.6zM740.5 518.5h-1v-.5h1z" fill="#5e5e5e"/><path d="M980 966c0-3.3 2.7-6 6-6h28c3.3 0 6 2.7 6 6v108c0 3.3-2.7 6-6 6h-28c-3.3 0-6-2.7-6-6z" stroke="#5e5e5e" stroke-width="3" fill="#fff"/><path d="M1000 156.23v5.05m0 5.04v10.08m0 5.05v10.08m0 5.04v10.1m0 5.03v10.1m0 5.03v10.08m0 5.06v10.08m0 5.04v10.1m0 5.03v10.1m0 5.04v10.08m0 5.05v10.08m0 5.04v10.08m0 5.04v10.1m0 5.03v10.1m0 5.03v10.08m0 5.05v10.1m0 5.03v10.1m0 5.03v10.1m0 5.03v10.07m0 5.05v10.08m0 5.04v10.1m0 5.03v10.1m0 5.03v10.08m0 5.05v10.08m0 5.05v10.1m0 5.03v10.1m0 5.03v10.1m0 5.04v10.08m0 5.05v10.08m0 5.04v10.08m0 5.04v10.1m0 5.03v10.08m0 5.05v10.08m0 5.04v10.1m0 5.03v10.1m0 5.03v10.08m0 5.05v10.07m0 5.04V721m0 5.04v10.1m0 5.03v10.08m0 5.05v10.08m0 5.05v10.08m0 5.05v10.1m0 5.03v10.1m0 5.03v10.1m0 5.04v10.08m0 5.04v10.1m0 5.03v10.08m0 5.04v10.08m0 5.05v10.08m0 5.04v10.1m0 5.03v10.1m0 5.03v10.08m0 5.06V958" stroke="#5e5e5e" fill="none"/><path d="M1000.5 155.8v.45h-1v-.6zM1000.5 958.5h-1v-.5h1z" fill="#5e5e5e"/><path d="M1640 142v5.07m0 5.06v10.14m0 5.06v10.14m0 5.06v10.14m0 5.06v10.14m0 5.06v10.14m0 5.06v10.14m0 5.06v10.14m0 5.06v10.14m0 5.06v10.14m0 5.06v10.14m0 5.06v10.14m0 5.06v10.14m0 5.06v10.14m0 5.06v10.14m0 5.06v10.14m0 5.06v10.14m0 5.06v10.14m0 5.06v10.14m0 5.06v10.14m0 5.06v10.14m0 5.06v10.14m0 5.06v10.14m0 5.06v10.14m0 5.06v10.14m0 5.06v10.14m0 5.06v10.14m0 5.06v10.14m0 5.06v10.14m0 5.06v10.14m0 5.06V598" stroke="#5e5e5e" fill="none"/><path d="M1640.5 142h-1v-.5h1z" fill="#5e5e5e"/><path d="M1640 598v.5M1280 152v4.96m0 4.95v9.92m0 4.96v9.9m0 4.96v9.92m0 4.95v9.92m0 4.96v9.9m0 4.96v9.92m0 4.95v9.92m0 4.96v9.9m0 4.96v9.92m0 4.95v9.92m0 4.96v9.9m0 4.96v9.92m0 4.95v9.92m0 4.96v9.9m0 4.96v9.92m0 4.95v9.92m0 4.96v9.9m0 4.96v9.92m0 4.95v9.92m0 4.96v9.9m0 4.96v9.92m0 4.95v9.92m0 4.96v9.9m0 4.96v9.92m0 4.95v9.92m0 4.96v9.9m0 4.96v9.92m0 4.95v9.92m0 4.96v9.9m0 4.96V598" stroke="#5e5e5e" fill="none"/><path d="M1280.5 152h-1v-.5h1z" fill="#5e5e5e"/><path d="M1280 598v.5M2000 598v-5.07m0-5.06v-10.14m0-5.06v-10.14m0-5.06v-10.14m0-5.06v-10.14m0-5.06v-10.14m0-5.06v-10.14m0-5.06v-10.14m0-5.06v-10.14m0-5.06v-10.14m0-5.06v-10.14m0-5.06v-10.14m0-5.06v-10.14m0-5.06v-10.14m0-5.06v-10.14m0-5.06v-10.14m0-5.06v-10.14m0-5.06v-10.14m0-5.06v-10.14m0-5.06v-10.14m0-5.06v-10.14m0-5.06v-10.14m0-5.06v-10.14m0-5.06v-10.14m0-5.06v-10.14m0-5.06v-10.14m0-5.06v-10.14m0-5.06v-10.14m0-5.06v-10.14m0-5.06v-10.14m0-5.06V142" stroke="#5e5e5e" fill="none"/><path d="M2000.5 598.5h-1v-.5h1zM2000.5 142h-1v-.5h1z" fill="#5e5e5e"/><path d="M2000 682v5.04m0 5.03v10.08m0 5.04v10.06m0 5.04v10.07m0 5.04v10.08m0 5.04v10.07m0 5.03v10.07m0 5.04v10.07m0 5.05v10.08m0 5.03V818" stroke="#5e5e5e" fill="none"/><path d="M2000.5 682h-1v-.5h1zM2000.5 818.5h-1v-.5h1z" fill="#5e5e5e"/><use xlink:href="#j" transform="matrix(1,0,0,1,2007.9999999999998,739.3333333333334) translate(0 14.222222222222223)"/><path d="M2000 922v4.97m0 4.96v9.93m0 4.97v9.93m0 4.96v9.93m0 4.97v9.93m0 4.96v9.94m0 4.97v9.94m0 4.97v9.94m0 4.96v9.93m0 4.97v9.93m0 4.96v9.92m0 4.97v9.92m0 4.96v9.94m0 4.96v9.93m0 4.98v9.93m0 4.97v9.93m0 4.97v9.93m0 4.96v9.93m0 4.96v9.93m0 4.96v9.93m0 4.95v9.93m0 4.97v9.93m0 4.96v9.93m0 4.97v9.93m0 4.96v4.97" stroke="#5e5e5e" fill="none"/><path d="M2000.5 922h-1v-.5h1z" fill="#5e5e5e"/><path d="M2000 1279.5v.5M2320 738v-4.97m0-4.96v-9.94m0-4.96v-9.94m0-4.96v-9.94m0-4.96v-9.94m0-4.96v-9.94m0-4.96v-9.94m0-4.96v-9.94m0-4.96v-9.94m0-4.96v-9.94m0-4.96v-9.94m0-4.96v-9.94m0-4.96v-9.94m0-4.96v-9.94m0-4.96v-9.94m0-4.96v-9.94m0-4.96v-9.94m0-4.96v-9.94m0-4.96v-9.94m0-4.96v-9.94m0-4.96v-9.94m0-4.96v-9.94m0-4.96v-9.94m0-4.96v-9.94m0-4.96v-9.94m0-4.96v-9.94m0-4.96v-9.94m0-4.96v-9.94m0-4.96v-9.94m0-4.96v-9.94m0-4.96v-9.94m0-4.96v-9.94m0-4.96v-9.94m0-4.96v-9.94m0-4.96v-9.94m0-4.96v-9.94m0-4.96v-9.94m0-4.96v-9.94m0-4.96v-9.94m0-4.96v-9.94m0-4.96V142" stroke="#5e5e5e" fill="none"/><path d="M2320.5 738.5h-1v-.5h1zM2320.5 142h-1v-.5h1z" fill="#5e5e5e"/><path d="M2320 802v4.98m0 4.98v9.96m0 4.98v9.95m0 4.98v9.96m0 4.97v9.96m0 4.98v9.97m0 4.98v9.95m0 4.98v9.96m0 4.98v9.96m0 4.98v9.96m0 4.98v9.95m0 4.98v9.96m0 4.97v9.96m0 4.98v9.97m0 4.98v9.95m0 4.98v9.96m0 4.98v9.96m0 4.98v9.96m0 4.98v9.95m0 4.98v9.96m0 4.97v9.96m0 4.98v9.97m0 4.98v9.95m0 4.98v9.96m0 4.98v9.96m0 4.98v9.96m0 4.98v9.95m0 4.98v9.96m0 4.97v9.96m0 4.98v9.97m0 4.98v9.95m0 4.98v9.96m0 4.98v9.96m0 4.98v9.96m0 4.98v9.95m0 4.98v9.96m0 4.97v9.96m0 4.98v9.97m0 4.98v9.95m0 4.98v9.96m0 4.98v4.98" stroke="#5e5e5e" fill="none"/><path d="M2320.5 802h-1v-.5h1z" fill="#5e5e5e"/><path d="M2320 1399.5v.5M230 180.5v4.3m0 4.3v8.62m0 4.3v8.62m0 4.3V223.56m0 4.3v8.6m0 4.32v8.6m0 4.3V258" stroke="#5e5e5e" fill="none"/><path d="M230.5 180.5h-1V177h1zM230.5 258.5h-1v-.5h1z" fill="#5e5e5e"/><path d="M230 462v4.67m0 4.66v9.34m0 4.66v9.34m0 4.66v9.34m0 4.66V518" stroke="#5e5e5e" fill="none"/><path d="M230.5 462h-1v-.5h1zM230.5 518.5h-1v-.5h1z" fill="#5e5e5e"/><path d="M482.12 265.8H252" stroke="#5e5e5e" fill="none"/><path d="M496.88 265.8l-14.26 4.64v-9.27z" stroke="#5e5e5e" fill="#5e5e5e"/><path d="M252 266.3h-.5v-.5l-.14-.5h.65z" fill="#5e5e5e"/><use xlink:href="#k" transform="matrix(1,0,0,1,342.9012345679012,269.80070229620065) translate(0 14.222222222222223)"/><use xlink:href="#l" transform="matrix(1,0,0,1,342.9012345679012,269.80070229620065) translate(4.938271604938272 14.222222222222223)"/><path d="M702.28 525.2H251.84" stroke="#5e5e5e" fill="none"/><path d="M717.05 525.2l-14.27 4.63v-9.27z" stroke="#5e5e5e" fill="#5e5e5e"/><path d="M251.85 525.7h-.38l-.27-1h.65z" fill="#5e5e5e"/><use xlink:href="#m" transform="matrix(1,0,0,1,413.5432098765432,529.190920543289) translate(0 14.222222222222223)"/><use xlink:href="#n" transform="matrix(1,0,0,1,413.5432098765432,529.190920543289) translate(90.71604938271605 14.222222222222223)"/><path d="M1243.1 602.2H758.97c-.65 0-1.17-.53-1.17-1.18" stroke="#5e5e5e" fill="none"/><path d="M1257.86 602.2l-14.27 4.63v-9.27z" stroke="#5e5e5e" fill="#5e5e5e"/><path d="M758.3 601.04h-1v-.38l.5-.14.5-.5z" fill="#5e5e5e"/><use xlink:href="#k" transform="matrix(1,0,0,1,934.8470244012725,606.1938734542352) translate(0 14.222222222222223)"/><use xlink:href="#o" transform="matrix(1,0,0,1,934.8470244012725,606.1938734542352) translate(4.938271604938272 14.222222222222223)"/><path d="M1601.74 602.27H1301.04" stroke="#5e5e5e" fill="none"/><path d="M1616.5 602.27l-14.26 4.63v-9.27z" stroke="#5e5e5e" fill="#5e5e5e"/><path d="M1301.06 602.77h-.38l-.16-.58-.42-.43h.96z" fill="#5e5e5e"/><use xlink:href="#p" transform="matrix(1,0,0,1,1360.7654320987656,606.2680899243514) translate(0 14.222222222222223)"/><path d="M1962.46 604.52h-302.13" stroke="#5e5e5e" fill="none"/><path d="M1977.23 604.52l-14.27 4.63v-9.27z" stroke="#5e5e5e" fill="#5e5e5e"/><path d="M1660.33 605.02h-.37l-.28-1h.65z" fill="#5e5e5e"/><use xlink:href="#q" transform="matrix(1,0,0,1,1776.4691358024693,608.5187568265185) translate(0 14.222222222222223)"/><path d="M1962.55 824.18H1302" stroke="#5e5e5e" fill="none"/><path d="M1977.32 824.18l-14.27 4.64v-9.27z" stroke="#5e5e5e" fill="#5e5e5e"/><path d="M1302 824.68h-.5v-1h.5z" fill="#5e5e5e"/><path d="M2282.12 746.67H1302" stroke="#5e5e5e" fill="none"/><path d="M2296.88 746.67l-14.26 4.63v-9.27z" stroke="#5e5e5e" fill="#5e5e5e"/><path d="M1302 747.17h-.5v-1h.5z" fill="#5e5e5e"/><use xlink:href="#j" transform="matrix(1,0,0,1,1754.148148148148,750.6666666666666) translate(0 14.222222222222223)"/><path d="M720 966c0-3.3 2.7-6 6-6h28c3.3 0 6 2.7 6 6v108c0 3.3-2.7 6-6 6h-28c-3.3 0-6-2.7-6-6z" stroke="#5e5e5e" stroke-width="3" fill="#fff"/><path d="M962.12 966.67H762" stroke="#5e5e5e" fill="none"/><path d="M976.88 966.67l-14.26 4.63v-9.27z" stroke="#5e5e5e" fill="#5e5e5e"/><path d="M762 967.17h-.5v-1h.5z" fill="#5e5e5e"/><use xlink:href="#r" transform="matrix(1,0,0,1,796,970.6666666666667) translate(0 14.222222222222223)"/><use xlink:href="#s" transform="matrix(1,0,0,1,796,970.6666666666667) translate(71.11111111111111 14.222222222222223)"/><use xlink:href="#t" transform="matrix(1,0,0,1,796,970.6666666666667) translate(127.30864197530866 14.222222222222223)"/><path d="M720 826c0-3.3 2.7-6 6-6h28c3.3 0 6 2.7 6 6v68c0 3.3-2.7 6-6 6h-28c-3.3 0-6-2.7-6-6z" stroke="#5e5e5e" stroke-width="3" fill="#fff"/><path d="M777.88 825.8H1258" stroke="#5e5e5e" fill="none"/><path d="M763.12 825.8l14.26-4.63v9.27z" stroke="#5e5e5e" fill="#5e5e5e"/><path d="M1258.5 826.3h-.5v-1h.5z" fill="#5e5e5e"/><use xlink:href="#u" transform="matrix(1,0,0,1,999.6543209876543,800.4673689628675) translate(0 14.222222222222223)"/><path d="M300 1086c0-3.3 2.7-6 6-6h88c3.3 0 6 2.7 6 6v8c0 3.3-1.9 7.9-4.24 10.24l-1.52 1.52c-2.34 2.34-6.93 4.24-10.24 4.24h-78c-3.3 0-6-2.7-6-6z" fill="#fff"/><path d="M400 1080v20l-10 10h-90" stroke="#5e5e5e" fill="none"/><path d="M300 1086c0-3.3 2.7-6 6-6h588c3.3 0 6 2.7 6 6v188c0 3.3-2.7 6-6 6H306c-3.3 0-6-2.7-6-6z" stroke="#5e5e5e" fill="none"/><use xlink:href="#v" transform="matrix(1,0,0,1,308,1080) translate(0 19.444444444444443)"/><path d="M520 382v4.98m0 5v9.95m0 4.98v9.98m0 4.98v9.97m0 4.98v9.97m0 5v9.95m0 4.98v9.97m0 4.98v9.97m0 4.98v9.97m0 4.98v9.96m0 5v9.96m0 4.98v9.97m0 5v9.96m0 4.98v9.97m0 5v9.95m0 5v9.95m0 4.98v9.97m0 4.98v9.97m0 4.98v9.97m0 4.98V671m0 4.98v9.96m0 4.98v9.97m0 4.97v9.97m0 4.98v9.96m0 5v9.95m0 5v9.95m0 4.98v9.97m0 4.98v9.98m0 4.98v9.96m0 5v9.95m0 4.98v9.97m0 4.98v9.97m0 4.98v9.97m0 4.98v9.96m0 5v9.95m0 5v9.96m0 4.98v9.97m0 5v9.96m0 4.98V955m0 5v9.95m0 4.98v9.97m0 4.98v9.97m0 4.98v9.97m0 4.98v9.96m0 5v9.95m0 4.97v9.97m0 4.98v9.97m0 4.97v9.96m0 5v4.97" stroke="#5e5e5e" fill="none"/><path d="M520.5 382h-1v-.5h1z" fill="#5e5e5e"/><path d="M520 1099.5v.5" stroke="#5e5e5e" fill="none"/><path d="M720 1126c0-3.3 2.7-6 6-6h28c3.3 0 6 2.7 6 6v108c0 3.3-2.7 6-6 6h-28c-3.3 0-6-2.7-6-6zM500 1126c0-3.3 2.7-6 6-6h28c3.3 0 6 2.7 6 6v48c0 3.3-2.7 6-6 6h-28c-3.3 0-6-2.7-6-6z" stroke="#5e5e5e" stroke-width="3" fill="#fff"/><path d="M520 1182v4.95m0 4.95v9.9m0 4.94v9.9m0 4.94v9.9m0 4.95v9.9m0 4.94v9.9m0 4.94v9.9m0 4.96v9.9m0 4.94v9.9m0 4.95v9.9m0 4.94v9.9m0 4.93v9.9m0 4.95v9.9m0 4.94v9.9m0 4.94v9.9m0 4.95v9.9m0 4.95v4.95" stroke="#5e5e5e" fill="none"/><path d="M520.5 1182h-1v-.5h1z" fill="#5e5e5e"/><path d="M520 1419.5v.5M740 1242v5.06m0 5.07v10.13m0 5.06v10.13m0 5.06v10.14m0 5.07v10.13m0 5.07v10.13m0 5.06v10.12m0 5.06v10.13m0 5.07v10.13m0 5.07v10.12m0 5.06V1399m0 5.05v10.13m0 5.06v10.13m0 5.07v5.06" stroke="#5e5e5e" fill="none"/><path d="M740.5 1242h-1v-.5h1z" fill="#5e5e5e"/><path d="M740 1439.5v.5M557.88 1126.97H718" stroke="#5e5e5e" fill="none"/><path d="M543.12 1126.97l14.26-4.64v9.27z" stroke="#5e5e5e" fill="#5e5e5e"/><path d="M718.5 1127.47h-.5v-1h.5z" fill="#5e5e5e"/><use xlink:href="#w" transform="matrix(1,0,0,1,525.3703703703703,1101.6319196723475) translate(0 14.222222222222223)"/><use xlink:href="#x" transform="matrix(1,0,0,1,525.3703703703703,1101.6319196723475) translate(64.19753086419755 14.222222222222223)"/><use xlink:href="#y" transform="matrix(1,0,0,1,525.3703703703703,1101.6319196723475) translate(115.45679012345681 14.222222222222223)"/><use xlink:href="#z" transform="matrix(1,0,0,1,525.3703703703703,1101.6319196723475) translate(127.30864197530866 14.222222222222223)"/><path d="M2298.62 796.5h-5.03m-5.04 0h-10.06m-5.03 0h-10.06m-5.02 0h-10.05m-5.03 0h-10.06m-5.03 0h-10.05m-5.03 0h-10.06m-5.03 0h-10.06m-5.03 0h-10.06m-5.03 0h-10.05m-5.03 0h-10.06m-5.02 0h-10.06m-5.03 0h-10.07m-5.03 0h-10.06m-5.03 0h-10.05m-5.02 0h-10.06m-5.03 0h-10.06m-5.03 0h-10.06m-5.04 0H2022m-5.03 0h-10.06m-5.02 0h-10.05m-5.03 0h-10.06m-5.03 0h-10.05m-5.03 0h-10.06m-5.03 0h-10.06m-5.03 0h-10.06m-5.03 0h-10.05m-5.03 0h-10.06m-5.02 0h-10.06m-5.03 0h-10.07m-5.03 0h-10.06m-5.03 0h-10.05m-5.02 0h-10.06m-5.03 0h-10.06m-5.03 0h-10.06m-5.04 0h-10.06m-5.03 0h-10.06m-5.02 0h-10.05m-5.03 0h-10.06m-5.03 0h-10.05m-5.03 0h-10.06m-5.03 0h-10.06m-5.03 0h-10.06m-5.03 0h-10.05m-5.03 0h-10.06m-5.02 0h-10.06m-5.03 0h-10.07m-5.03 0h-10.06m-5.03 0h-10.05m-5.02 0h-10.06m-5.03 0h-10.06m-5.03 0h-10.06m-5.04 0H1509m-5.03 0h-10.06m-5.02 0h-10.05m-5.03 0h-10.06m-5.03 0h-10.05m-5.03 0h-10.06m-5.03 0h-10.06m-5.03 0h-10.06m-5.03 0h-10.05m-5.03 0h-10.06m-5.02 0h-10.06m-5.03 0h-10.07m-5.03 0h-10.06m-5.03 0h-5.02" stroke="#5e5e5e" fill="none"/><path d="M2299.25 797h-.64v-1h.38z" fill="#5e5e5e"/><path d="M1303.12 796.5l14.26-4.65v9.27z" stroke="#5e5e5e" fill="#5e5e5e"/><use xlink:href="#A" transform="matrix(1,0,0,1,1727.815930955416,800.4895140889988) translate(0 14.222222222222223)"/><use xlink:href="#B" transform="matrix(1,0,0,1,1727.815930955416,800.4895140889988) translate(78.9135802469136 14.222222222222223)"/><use xlink:href="#C" transform="matrix(1,0,0,1,1727.815930955416,800.4895140889988) translate(93.7283950617284 14.222222222222223)"/><path d="M1978.1 674.55h-5.03m-5.03 0H1958m-5.03 0h-10.06m-5 0h-10.06m-5.03 0h-10.04m-5.03 0h-10.05m-5.02 0h-10.05m-5.02 0h-10.05m-5.03 0h-10.05m-5.02 0h-10.06m-5.02 0h-10.05m-5.03 0h-10.05m-5.03 0h-10.06m-5.02 0h-10.05m-5.03 0H1762m-5.04 0h-10.05m-5 0h-10.07m-5.02 0h-10.04m-5.03 0h-10.05m-5.03 0h-10.05m-5.02 0h-5.03" stroke="#5e5e5e" fill="none"/><path d="M1978.5 674.2l.23.85h-.65v-1h.42z" fill="#5e5e5e"/><path d="M1661.78 674.55l14.27-4.63v9.27z" stroke="#5e5e5e" fill="#5e5e5e"/><use xlink:href="#D" transform="matrix(1,0,0,1,1762.6648363162028,678.5508791514703) translate(0 14.222222222222223)"/><use xlink:href="#E" transform="matrix(1,0,0,1,1762.6648363162028,678.5508791514703) translate(66.02469135802471 14.222222222222223)"/><path d="M1617.64 717.8h-5m-5 0h-9.98m-5 0h-10m-5 0h-9.98m-5 0h-10m-4.98 0h-10m-5 0h-9.98m-5 0h-10m-5 0h-9.98m-5 0h-9.98m-5 0h-10m-5 0h-9.98m-5 0h-10m-4.98 0h-10m-5 0h-9.98m-5 0h-10m-5 0h-9.98m-5 0h-10m-4.98 0h-10m-5 0h-9.98m-5 0h-5" stroke="#5e5e5e" fill="none"/><path d="M1618.14 717.8l.5.5h-1v-1h.37z" fill="#5e5e5e"/><path d="M1303.12 717.8l14.26-4.63v9.27z" stroke="#5e5e5e" fill="#5e5e5e"/><g><use xlink:href="#F" transform="matrix(1,0,0,1,1349.9199323665348,721.8061265457648) translate(0 14.222222222222223)"/><use xlink:href="#G" transform="matrix(1,0,0,1,1349.9199323665348,721.8061265457648) translate(71.90123456790124 14.222222222222223)"/><use xlink:href="#H" transform="matrix(1,0,0,1,1349.9199323665348,721.8061265457648) translate(131.01234567901236 14.222222222222223)"/><use xlink:href="#I" transform="matrix(1,0,0,1,1349.9199323665348,721.8061265457648) translate(172.3950617283951 14.222222222222223)"/></g><path d="M1300 886c0-3.3 2.7-6 6-6h28c3.3 0 6 2.7 6 6v28c0 3.3-2.7 6-6 6h-28c-3.3 0-6-2.7-6-6z" stroke="#5e5e5e" stroke-width="3" fill="#fff"/><path d="M1978 887.83h-620.12" stroke="#5e5e5e" fill="none"/><path d="M1978.5 888.33h-.5v-1h.5z" fill="#5e5e5e"/><path d="M1343.12 887.83l14.26-4.63v9.27z" stroke="#5e5e5e" fill="#5e5e5e"/><g><use xlink:href="#j" transform="matrix(1,0,0,1,1614.148148148148,891.8319460959175) translate(0 14.222222222222223)"/></g><path d="M1965.1 919.82h-4.96m-4.97 0h-1m-4.96 0h-9.93m-4.97 0h-1m-4.96 0h-9.94m-4.97 0h-1m-4.96 0h-9.94m-4.97 0h-1m-4.96 0h-9.94m-4.97 0h-1m-4.97 0h-9.94m-4.98 0h-1m-4.96 0h-9.94m-4.97 0h-1m-4.96 0h-9.95m-4.97 0h-1m-4.96 0h-9.94m-4.97 0h-.98m-4.97 0h-9.94m-4.96 0h-1m-4.96 0h-9.94m-4.97 0h-1m-4.96 0h-9.93m-4.97 0h-1m-4.96 0h-9.94m-4.97 0h-1m-4.96 0h-9.94m-4.97 0h-1m-4.96 0h-9.94m-4.97 0h-1m-4.97 0h-9.94m-4.98 0h-1m-4.96 0h-9.94m-4.97 0h-1m-4.96 0h-9.95m-4.97 0h-1m-4.96 0h-9.94m-4.97 0h-.98m-4.97 0h-9.94m-4.96 0h-1m-4.96 0h-9.94m-4.97 0h-1m-4.96 0h-9.93m-4.97 0h-1m-4.96 0H1501m-4.97 0h-1m-4.96 0h-9.94m-4.97 0h-1m-4.96 0h-9.94m-4.97 0h-1m-4.97 0h-9.94m-4.98 0h-1m-4.96 0h-9.94m-4.97 0h-1m-4.96 0h-9.95m-4.97 0h-1m-4.96 0h-9.94m-4.97 0h-.98m-4.97 0h-9.94m-4.96 0h-1m-4.96 0H1339" stroke="#5e5e5e" fill="none"/><path d="M1979.87 919.82l-14.27 4.63v-9.27z" stroke="#5e5e5e" fill="#5e5e5e"/><path d="M1339.03 920.32H1338l1-1h.03z" fill="#5e5e5e"/><g><use xlink:href="#J" transform="matrix(1,0,0,1,1586.4207530864198,923.819213024931) translate(0 14.222222222222223)"/><use xlink:href="#K" transform="matrix(1,0,0,1,1586.4207530864198,923.819213024931) translate(49.33333333333334 14.222222222222223)"/><use xlink:href="#L" transform="matrix(1,0,0,1,1586.4207530864198,923.819213024931) translate(70.02469135802471 14.222222222222223)"/><use xlink:href="#M" transform="matrix(1,0,0,1,1586.4207530864198,923.819213024931) translate(112.44444444444447 14.222222222222223)"/></g><defs><path fill="#333" d="M63-220v92h138v28H63V0H30v-248h175v28H63" id="N"/><path fill="#333" d="M141-36C126-15 110 5 73 4 37 3 15-17 15-53c-1-64 63-63 125-63 3-35-9-54-41-54-24 1-41 7-42 31l-33-3c5-37 33-52 76-52 45 0 72 20 72 64v82c-1 20 7 32 28 27v20c-31 9-61-2-59-35zM48-53c0 20 12 33 32 33 41-3 63-29 60-74-43 2-92-5-92 41" id="O"/><path fill="#333" d="M9 0v-24l116-142H16v-24h144v24L44-24h123V0H9" id="P"/><path fill="#333" d="M100-194c63 0 86 42 84 106H49c0 40 14 67 53 68 26 1 43-12 49-29l28 8c-11 28-37 45-77 45C44 4 14-33 15-96c1-61 26-98 85-98zm52 81c6-60-76-77-97-28-3 7-6 17-6 28h103" id="Q"/><path fill="#333" d="M114-163C36-179 61-72 57 0H25l-1-190h30c1 12-1 29 2 39 6-27 23-49 58-41v29" id="R"/><g id="a"><use transform="matrix(0.06172839506172839,0,0,0.06172839506172839,0,0)" xlink:href="#N"/><use transform="matrix(0.06172839506172839,0,0,0.06172839506172839,13.518518518518517,0)" xlink:href="#O"/><use transform="matrix(0.06172839506172839,0,0,0.06172839506172839,25.864197530864196,0)" xlink:href="#P"/><use transform="matrix(0.06172839506172839,0,0,0.06172839506172839,36.9753086419753,0)" xlink:href="#Q"/><use transform="matrix(0.06172839506172839,0,0,0.06172839506172839,49.32098765432098,0)" xlink:href="#R"/></g><path fill="#333" d="M24 0v-261h32V0H24" id="S"/><path fill="#333" d="M100-194c62-1 85 37 85 99 1 63-27 99-86 99S16-35 15-95c0-66 28-99 85-99zM99-20c44 1 53-31 53-75 0-43-8-75-51-75s-53 32-53 75 10 74 51 75" id="T"/><path fill="#333" d="M177-190C167-65 218 103 67 71c-23-6-38-20-44-43l32-5c15 47 100 32 89-28v-30C133-14 115 1 83 1 29 1 15-40 15-95c0-56 16-97 71-98 29-1 48 16 59 35 1-10 0-23 2-32h30zM94-22c36 0 50-32 50-73 0-42-14-75-50-75-39 0-46 34-46 75s6 73 46 73" id="U"/><path fill="#333" d="M24-231v-30h32v30H24zM24 0v-190h32V0H24" id="V"/><path fill="#333" d="M117-194c89-4 53 116 60 194h-32v-121c0-31-8-49-39-48C34-167 62-67 57 0H25l-1-190h30c1 10-1 24 2 32 11-22 29-35 61-36" id="W"/><g id="b"><use transform="matrix(0.06172839506172839,0,0,0.06172839506172839,0,0)" xlink:href="#S"/><use transform="matrix(0.06172839506172839,0,0,0.06172839506172839,4.876543209876543,0)" xlink:href="#T"/><use transform="matrix(0.06172839506172839,0,0,0.06172839506172839,17.22222222222222,0)" xlink:href="#U"/><use transform="matrix(0.06172839506172839,0,0,0.06172839506172839,29.5679012345679,0)" xlink:href="#V"/><use transform="matrix(0.06172839506172839,0,0,0.06172839506172839,34.44444444444444,0)" xlink:href="#W"/></g><path fill="#333" d="M84 4C-5 8 30-112 23-190h32v120c0 31 7 50 39 49 72-2 45-101 50-169h31l1 190h-30c-1-10 1-25-2-33-11 22-28 36-60 37" id="X"/><path fill="#333" d="M135-143c-3-34-86-38-87 0 15 53 115 12 119 90S17 21 10-45l28-5c4 36 97 45 98 0-10-56-113-15-118-90-4-57 82-63 122-42 12 7 21 19 24 35" id="Y"/><g id="c"><use transform="matrix(0.06172839506172839,0,0,0.06172839506172839,0,0)" xlink:href="#X"/><use transform="matrix(0.06172839506172839,0,0,0.06172839506172839,12.345679012345679,0)" xlink:href="#Y"/><use transform="matrix(0.06172839506172839,0,0,0.06172839506172839,23.45679012345679,0)" xlink:href="#X"/><use transform="matrix(0.06172839506172839,0,0,0.06172839506172839,35.80246913580247,0)" xlink:href="#O"/><use transform="matrix(0.06172839506172839,0,0,0.06172839506172839,48.148148148148145,0)" xlink:href="#R"/><use transform="matrix(0.06172839506172839,0,0,0.06172839506172839,55.49382716049382,0)" xlink:href="#V"/><use transform="matrix(0.06172839506172839,0,0,0.06172839506172839,60.37037037037037,0)" xlink:href="#T"/></g><path fill="#333" d="M185-189c-5-48-123-54-124 2 14 75 158 14 163 119 3 78-121 87-175 55-17-10-28-26-33-46l33-7c5 56 141 63 141-1 0-78-155-14-162-118-5-82 145-84 179-34 5 7 8 16 11 25" id="Z"/><path fill="#333" d="M108 0H70L1-190h34L89-25l56-165h34" id="aa"/><path fill="#333" d="M85-194c31 0 48 13 60 33l-1-100h32l1 261h-30c-2-10 0-23-3-31C134-8 116 4 85 4 32 4 16-35 15-94c0-66 23-100 70-100zm9 24c-40 0-46 34-46 75 0 40 6 74 45 74 42 0 51-32 51-76 0-42-9-74-50-73" id="ab"/><g id="d"><use transform="matrix(0.06172839506172839,0,0,0.06172839506172839,0,0)" xlink:href="#S"/><use transform="matrix(0.06172839506172839,0,0,0.06172839506172839,4.876543209876543,0)" xlink:href="#T"/><use transform="matrix(0.06172839506172839,0,0,0.06172839506172839,17.22222222222222,0)" xlink:href="#U"/><use transform="matrix(0.06172839506172839,0,0,0.06172839506172839,29.5679012345679,0)" xlink:href="#V"/><use transform="matrix(0.06172839506172839,0,0,0.06172839506172839,34.44444444444444,0)" xlink:href="#W"/><use transform="matrix(0.06172839506172839,0,0,0.06172839506172839,46.79012345679012,0)" xlink:href="#Z"/><use transform="matrix(0.06172839506172839,0,0,0.06172839506172839,61.60493827160494,0)" xlink:href="#Q"/><use transform="matrix(0.06172839506172839,0,0,0.06172839506172839,73.95061728395062,0)" xlink:href="#R"/><use transform="matrix(0.06172839506172839,0,0,0.06172839506172839,81.2962962962963,0)" xlink:href="#aa"/><use transform="matrix(0.06172839506172839,0,0,0.06172839506172839,92.40740740740742,0)" xlink:href="#V"/><use transform="matrix(0.06172839506172839,0,0,0.06172839506172839,97.28395061728396,0)" xlink:href="#ab"/><use transform="matrix(0.06172839506172839,0,0,0.06172839506172839,109.62962962962965,0)" xlink:href="#T"/><use transform="matrix(0.06172839506172839,0,0,0.06172839506172839,121.97530864197533,0)" xlink:href="#R"/></g><path fill="#333" d="M232-93c-1 65-40 97-104 97C67 4 28-28 28-90v-158h33c8 89-33 224 67 224 102 0 64-133 71-224h33v155" id="ac"/><path fill="#333" d="M205 0l-28-72H64L36 0H1l101-248h38L239 0h-34zm-38-99l-47-123c-12 45-31 82-46 123h93" id="ad"/><path fill="#333" d="M30-248c118-7 216 8 213 122C240-48 200 0 122 0H30v-248zM63-27c89 8 146-16 146-99s-60-101-146-95v194" id="ae"/><g id="e"><use transform="matrix(0.06172839506172839,0,0,0.06172839506172839,0,0)" xlink:href="#ac"/><use transform="matrix(0.06172839506172839,0,0,0.06172839506172839,15.987654320987653,0)" xlink:href="#Y"/><use transform="matrix(0.06172839506172839,0,0,0.06172839506172839,27.098765432098766,0)" xlink:href="#X"/><use transform="matrix(0.06172839506172839,0,0,0.06172839506172839,39.44444444444444,0)" xlink:href="#O"/><use transform="matrix(0.06172839506172839,0,0,0.06172839506172839,51.79012345679012,0)" xlink:href="#R"/><use transform="matrix(0.06172839506172839,0,0,0.06172839506172839,59.1358024691358,0)" xlink:href="#V"/><use transform="matrix(0.06172839506172839,0,0,0.06172839506172839,64.01234567901234,0)" xlink:href="#T"/><use transform="matrix(0.06172839506172839,0,0,0.06172839506172839,76.35802469135803,0)" xlink:href="#ad"/><use transform="matrix(0.06172839506172839,0,0,0.06172839506172839,91.17283950617283,0)" xlink:href="#ae"/></g><g id="f"><use transform="matrix(0.06172839506172839,0,0,0.06172839506172839,0,0)" xlink:href="#ac"/><use transform="matrix(0.06172839506172839,0,0,0.06172839506172839,15.987654320987653,0)" xlink:href="#Y"/><use transform="matrix(0.06172839506172839,0,0,0.06172839506172839,27.098765432098766,0)" xlink:href="#X"/><use transform="matrix(0.06172839506172839,0,0,0.06172839506172839,39.44444444444444,0)" xlink:href="#O"/><use transform="matrix(0.06172839506172839,0,0,0.06172839506172839,51.79012345679012,0)" xlink:href="#R"/><use transform="matrix(0.06172839506172839,0,0,0.06172839506172839,59.1358024691358,0)" xlink:href="#V"/><use transform="matrix(0.06172839506172839,0,0,0.06172839506172839,64.01234567901234,0)" xlink:href="#T"/></g><path fill="#333" d="M141 0L90-78 38 0H4l68-98-65-92h35l48 74 47-74h35l-64 92 68 98h-35" id="af"/><g id="g"><use transform="matrix(0.06172839506172839,0,0,0.06172839506172839,0,0)" xlink:href="#V"/><use transform="matrix(0.06172839506172839,0,0,0.06172839506172839,4.876543209876543,0)" xlink:href="#W"/><use transform="matrix(0.06172839506172839,0,0,0.06172839506172839,17.22222222222222,0)" xlink:href="#ab"/><use transform="matrix(0.06172839506172839,0,0,0.06172839506172839,29.5679012345679,0)" xlink:href="#Q"/><use transform="matrix(0.06172839506172839,0,0,0.06172839506172839,41.913580246913575,0)" xlink:href="#af"/></g><g id="h"><use transform="matrix(0.06172839506172839,0,0,0.06172839506172839,0,0)" xlink:href="#S"/><use transform="matrix(0.06172839506172839,0,0,0.06172839506172839,4.876543209876543,0)" xlink:href="#T"/><use transform="matrix(0.06172839506172839,0,0,0.06172839506172839,17.22222222222222,0)" xlink:href="#U"/><use transform="matrix(0.06172839506172839,0,0,0.06172839506172839,29.5679012345679,0)" xlink:href="#V"/><use transform="matrix(0.06172839506172839,0,0,0.06172839506172839,34.44444444444444,0)" xlink:href="#W"/></g><path fill="#333" d="M16-82v-28h88v28H16" id="ag"/><path fill="#333" d="M210-169c-67 3-38 105-44 169h-31v-121c0-29-5-50-35-48C34-165 62-65 56 0H25l-1-190h30c1 10-1 24 2 32 10-44 99-50 107 0 11-21 27-35 58-36 85-2 47 119 55 194h-31v-121c0-29-5-49-35-48" id="ah"/><g id="i"><use transform="matrix(0.06172839506172839,0,0,0.06172839506172839,0,0)" xlink:href="#V"/><use transform="matrix(0.06172839506172839,0,0,0.06172839506172839,4.876543209876543,0)" xlink:href="#W"/><use transform="matrix(0.06172839506172839,0,0,0.06172839506172839,17.22222222222222,0)" xlink:href="#ab"/><use transform="matrix(0.06172839506172839,0,0,0.06172839506172839,29.5679012345679,0)" xlink:href="#Q"/><use transform="matrix(0.06172839506172839,0,0,0.06172839506172839,41.913580246913575,0)" xlink:href="#af"/><use transform="matrix(0.06172839506172839,0,0,0.06172839506172839,53.02469135802468,0)" xlink:href="#ag"/><use transform="matrix(0.06172839506172839,0,0,0.06172839506172839,60.37037037037036,0)" xlink:href="#O"/><use transform="matrix(0.06172839506172839,0,0,0.06172839506172839,72.71604938271604,0)" xlink:href="#ab"/><use transform="matrix(0.06172839506172839,0,0,0.06172839506172839,85.06172839506172,0)" xlink:href="#ah"/><use transform="matrix(0.06172839506172839,0,0,0.06172839506172839,103.5185185185185,0)" xlink:href="#V"/><use transform="matrix(0.06172839506172839,0,0,0.06172839506172839,108.39506172839505,0)" xlink:href="#W"/></g><path fill="#333" d="M230 0l2-204L168 0h-37L68-204 70 0H24v-248h70l56 185 57-185h69V0h-46" id="ai"/><path fill="#333" d="M185-48c-13 30-37 53-82 52C43 2 14-33 14-96s30-98 90-98c62 0 83 45 84 108H66c0 31 8 55 39 56 18 0 30-7 34-22zm-45-69c5-46-57-63-70-21-2 6-4 13-4 21h74" id="aj"/><path fill="#333" d="M135-194c87-1 58 113 63 194h-50c-7-57 23-157-34-157-59 0-34 97-39 157H25l-1-190h47c2 12-1 28 3 38 12-26 28-41 61-42" id="ak"/><path fill="#333" d="M137-138c1-29-70-34-71-4 15 46 118 7 119 86 1 83-164 76-172 9l43-7c4 19 20 25 44 25 33 8 57-30 24-41C81-84 22-81 20-136c-2-80 154-74 161-7" id="al"/><path fill="#333" d="M133-34C117-15 103 5 69 4 32 3 11-16 11-54c-1-60 55-63 116-61 1-26-3-47-28-47-18 1-26 9-28 27l-52-2c7-38 36-58 82-57s74 22 75 68l1 82c-1 14 12 18 25 15v27c-30 8-71 5-69-32zm-48 3c29 0 43-24 42-57-32 0-66-3-65 30 0 17 8 27 23 27" id="am"/><path fill="#333" d="M195-6C206 82 75 100 31 46c-4-6-6-13-8-21l49-6c3 16 16 24 34 25 40 0 42-37 40-79-11 22-30 35-61 35-53 0-70-43-70-97 0-56 18-96 73-97 30 0 46 14 59 34l2-30h47zm-90-29c32 0 41-27 41-63 0-35-9-62-40-62-32 0-39 29-40 63 0 36 9 62 39 62" id="an"/><path fill="#333" d="M220-157c-53 9-28 100-34 157h-49v-107c1-27-5-49-29-50C55-147 81-57 75 0H25l-1-190h47c2 12-1 28 3 38 10-53 101-56 108 0 13-22 24-43 59-42 82 1 51 116 57 194h-49v-107c-1-25-5-48-29-50" id="ao"/><g id="j"><use transform="matrix(0.04938271604938272,0,0,0.04938271604938272,0,0)" xlink:href="#ai"/><use transform="matrix(0.04938271604938272,0,0,0.04938271604938272,14.765432098765434,0)" xlink:href="#aj"/><use transform="matrix(0.04938271604938272,0,0,0.04938271604938272,24.641975308641978,0)" xlink:href="#ak"/><use transform="matrix(0.04938271604938272,0,0,0.04938271604938272,35.45679012345679,0)" xlink:href="#al"/><use transform="matrix(0.04938271604938272,0,0,0.04938271604938272,45.333333333333336,0)" xlink:href="#am"/><use transform="matrix(0.04938271604938272,0,0,0.04938271604938272,55.20987654320988,0)" xlink:href="#an"/><use transform="matrix(0.04938271604938272,0,0,0.04938271604938272,66.0246913580247,0)" xlink:href="#aj"/><use transform="matrix(0.04938271604938272,0,0,0.04938271604938272,75.90123456790124,0)" xlink:href="#ao"/></g><path fill="#333" d="M190-63c-7 42-38 67-86 67-59 0-84-38-90-98-12-110 154-137 174-36l-49 2c-2-19-15-32-35-32-30 0-35 28-38 64-6 74 65 87 74 30" id="ap"/><g id="l"><use transform="matrix(0.04938271604938272,0,0,0.04938271604938272,0,0)" xlink:href="#am"/><use transform="matrix(0.04938271604938272,0,0,0.04938271604938272,9.876543209876544,0)" xlink:href="#ap"/><use transform="matrix(0.04938271604938272,0,0,0.04938271604938272,19.75308641975309,0)" xlink:href="#aj"/><use transform="matrix(0.04938271604938272,0,0,0.04938271604938272,29.629629629629633,0)" xlink:href="#al"/><use transform="matrix(0.04938271604938272,0,0,0.04938271604938272,39.50617283950618,0)" xlink:href="#al"/><use transform="matrix(0.04938271604938272,0,0,0.04938271604938272,49.38271604938272,0)" xlink:href="#am"/></g><path fill="#333" d="M135-194c53 0 70 44 70 98 0 56-19 98-73 100-31 1-45-17-59-34 3 33 2 69 2 105H25l-1-265h48c2 10 0 23 3 31 11-24 29-35 60-35zM114-30c33 0 39-31 40-66 0-38-9-64-40-64-56 0-55 130 0 130" id="aq"/><path fill="#333" d="M135-150c-39-12-60 13-60 57V0H25l-1-190h47c2 13-1 29 3 40 6-28 27-53 61-41v41" id="ar"/><path fill="#333" d="M114-157C55-157 80-60 75 0H25v-261h50l-1 109c12-26 28-41 61-42 86-1 58 113 63 194h-50c-7-57 23-157-34-157" id="as"/><g id="m"><use transform="matrix(0.04938271604938272,0,0,0.04938271604938272,0,0)" xlink:href="#aq"/><use transform="matrix(0.04938271604938272,0,0,0.04938271604938272,10.814814814814815,0)" xlink:href="#ar"/><use transform="matrix(0.04938271604938272,0,0,0.04938271604938272,17.728395061728396,0)" xlink:href="#aj"/><use transform="matrix(0.04938271604938272,0,0,0.04938271604938272,27.60493827160494,0)" xlink:href="#aj"/><use transform="matrix(0.04938271604938272,0,0,0.04938271604938272,37.48148148148148,0)" xlink:href="#ak"/><use transform="matrix(0.04938271604938272,0,0,0.04938271604938272,48.2962962962963,0)" xlink:href="#ap"/><use transform="matrix(0.04938271604938272,0,0,0.04938271604938272,58.17283950617284,0)" xlink:href="#as"/><use transform="matrix(0.04938271604938272,0,0,0.04938271604938272,68.98765432098766,0)" xlink:href="#aj"/><use transform="matrix(0.04938271604938272,0,0,0.04938271604938272,78.8641975308642,0)" xlink:href="#ar"/></g><path fill="#333" d="M88-194c31-1 46 15 58 34l-1-101h50l1 261h-48c-2-10 0-23-3-31C134-8 116 4 84 4 32 4 16-41 15-95c0-56 19-97 73-99zm17 164c33 0 40-30 41-66 1-37-9-64-41-64s-38 30-39 65c0 43 13 65 39 65" id="at"/><path fill="#333" d="M110-194c64 0 96 36 96 99 0 64-35 99-97 99-61 0-95-36-95-99 0-62 34-99 96-99zm-1 164c35 0 45-28 45-65 0-40-10-65-43-65-34 0-45 26-45 65 0 36 10 65 43 65" id="au"/><g id="n"><use transform="matrix(0.04938271604938272,0,0,0.04938271604938272,0,0)" xlink:href="#at"/><use transform="matrix(0.04938271604938272,0,0,0.04938271604938272,10.814814814814815,0)" xlink:href="#am"/><use transform="matrix(0.04938271604938272,0,0,0.04938271604938272,20.69135802469136,0)" xlink:href="#at"/><use transform="matrix(0.04938271604938272,0,0,0.04938271604938272,31.506172839506174,0)" xlink:href="#au"/><use transform="matrix(0.04938271604938272,0,0,0.04938271604938272,42.320987654320994,0)" xlink:href="#al"/></g><path fill="#333" d="M85 4C-2 5 27-109 22-190h50c7 57-23 150 33 157 60-5 35-97 40-157h50l1 190h-47c-2-12 1-28-3-38-12 25-28 42-61 42" id="av"/><path fill="#333" d="M115-3C79 11 28 4 28-45v-112H4v-33h27l15-45h31v45h36v33H77v99c-1 23 16 31 38 25v30" id="aw"/><path fill="#333" d="M25-224v-37h50v37H25zM25 0v-190h50V0H25" id="ax"/><g id="o"><use transform="matrix(0.04938271604938272,0,0,0.04938271604938272,0,0)" xlink:href="#am"/><use transform="matrix(0.04938271604938272,0,0,0.04938271604938272,9.876543209876544,0)" xlink:href="#av"/><use transform="matrix(0.04938271604938272,0,0,0.04938271604938272,20.69135802469136,0)" xlink:href="#aw"/><use transform="matrix(0.04938271604938272,0,0,0.04938271604938272,26.567901234567902,0)" xlink:href="#aj"/><use transform="matrix(0.04938271604938272,0,0,0.04938271604938272,36.44444444444445,0)" xlink:href="#ak"/><use transform="matrix(0.04938271604938272,0,0,0.04938271604938272,47.25925925925927,0)" xlink:href="#aw"/><use transform="matrix(0.04938271604938272,0,0,0.04938271604938272,53.135802469135804,0)" xlink:href="#ax"/><use transform="matrix(0.04938271604938272,0,0,0.04938271604938272,58.074074074074076,0)" xlink:href="#ap"/><use transform="matrix(0.04938271604938272,0,0,0.04938271604938272,67.95061728395063,0)" xlink:href="#am"/><use transform="matrix(0.04938271604938272,0,0,0.04938271604938272,77.82716049382718,0)" xlink:href="#ar"/></g><path fill="#333" d="M135-194c52 0 70 43 70 98 0 56-19 99-73 100-30 1-46-15-58-35L72 0H24l1-261h50v104c11-23 29-37 60-37zM114-30c31 0 40-27 40-66 0-37-7-63-39-63s-41 28-41 65c0 36 8 64 40 64" id="ay"/><path fill="#333" d="M238-95c0 69-44 99-111 99C63 4 22-25 22-93v-155h51v151c-1 38 19 59 55 60 90 1 49-130 58-211h52v153" id="az"/><path fill="#333" d="M67-125c0 53 21 87 73 88 37 1 54-22 65-47l45 17C233-25 199 4 140 4 58 4 20-42 15-125 8-235 124-281 211-232c18 10 29 29 36 50l-46 12c-8-25-30-41-62-41-52 0-71 34-72 86" id="aA"/><path fill="#333" d="M24 0v-248h195v40H76v63h132v40H76v65h150V0H24" id="aB"/><path fill="#333" d="M25 0v-261h50V0H25" id="aC"/><g id="p"><use transform="matrix(0.04938271604938272,0,0,0.04938271604938272,0,0)" xlink:href="#au"/><use transform="matrix(0.04938271604938272,0,0,0.04938271604938272,10.814814814814815,0)" xlink:href="#ay"/><use transform="matrix(0.04938271604938272,0,0,0.04938271604938272,21.62962962962963,0)" xlink:href="#aw"/><use transform="matrix(0.04938271604938272,0,0,0.04938271604938272,27.506172839506174,0)" xlink:href="#aj"/><use transform="matrix(0.04938271604938272,0,0,0.04938271604938272,37.38271604938272,0)" xlink:href="#ar"/><use transform="matrix(0.04938271604938272,0,0,0.04938271604938272,44.296296296296305,0)" xlink:href="#az"/><use transform="matrix(0.04938271604938272,0,0,0.04938271604938272,57.08641975308644,0)" xlink:href="#al"/><use transform="matrix(0.04938271604938272,0,0,0.04938271604938272,66.96296296296298,0)" xlink:href="#av"/><use transform="matrix(0.04938271604938272,0,0,0.04938271604938272,77.77777777777779,0)" xlink:href="#am"/><use transform="matrix(0.04938271604938272,0,0,0.04938271604938272,87.65432098765433,0)" xlink:href="#ar"/><use transform="matrix(0.04938271604938272,0,0,0.04938271604938272,94.56790123456791,0)" xlink:href="#ax"/><use transform="matrix(0.04938271604938272,0,0,0.04938271604938272,99.50617283950618,0)" xlink:href="#au"/><use transform="matrix(0.04938271604938272,0,0,0.04938271604938272,110.320987654321,0)" xlink:href="#aA"/><use transform="matrix(0.04938271604938272,0,0,0.04938271604938272,123.11111111111113,0)" xlink:href="#au"/><use transform="matrix(0.04938271604938272,0,0,0.04938271604938272,133.92592592592592,0)" xlink:href="#ao"/><use transform="matrix(0.04938271604938272,0,0,0.04938271604938272,149.7283950617284,0)" xlink:href="#aB"/><use transform="matrix(0.04938271604938272,0,0,0.04938271604938272,161.58024691358025,0)" xlink:href="#ao"/><use transform="matrix(0.04938271604938272,0,0,0.04938271604938272,177.38271604938274,0)" xlink:href="#am"/><use transform="matrix(0.04938271604938272,0,0,0.04938271604938272,187.2592592592593,0)" xlink:href="#ax"/><use transform="matrix(0.04938271604938272,0,0,0.04938271604938272,192.19753086419757,0)" xlink:href="#aC"/></g><path fill="#333" d="M67-93c0 74 22 123 53 168H70C40 30 18-18 18-93s22-123 52-168h50c-32 44-53 94-53 168" id="aD"/><path fill="#333" d="M102-93c0 74-22 123-52 168H0C30 29 54-18 53-93c0-74-22-123-53-168h50c30 45 52 94 52 168" id="aE"/><g id="q"><use transform="matrix(0.04938271604938272,0,0,0.04938271604938272,0,0)" xlink:href="#an"/><use transform="matrix(0.04938271604938272,0,0,0.04938271604938272,10.814814814814815,0)" xlink:href="#aj"/><use transform="matrix(0.04938271604938272,0,0,0.04938271604938272,20.69135802469136,0)" xlink:href="#aw"/><use transform="matrix(0.04938271604938272,0,0,0.04938271604938272,26.567901234567902,0)" xlink:href="#aB"/><use transform="matrix(0.04938271604938272,0,0,0.04938271604938272,38.41975308641976,0)" xlink:href="#ao"/><use transform="matrix(0.04938271604938272,0,0,0.04938271604938272,54.22222222222223,0)" xlink:href="#am"/><use transform="matrix(0.04938271604938272,0,0,0.04938271604938272,64.09876543209877,0)" xlink:href="#ax"/><use transform="matrix(0.04938271604938272,0,0,0.04938271604938272,69.03703703703704,0)" xlink:href="#aC"/><use transform="matrix(0.04938271604938272,0,0,0.04938271604938272,73.97530864197532,0)" xlink:href="#aD"/><use transform="matrix(0.04938271604938272,0,0,0.04938271604938272,79.85185185185186,0)" xlink:href="#aE"/></g><g id="r"><use transform="matrix(0.04938271604938272,0,0,0.04938271604938272,0,0)" xlink:href="#am"/><use transform="matrix(0.04938271604938272,0,0,0.04938271604938272,9.876543209876544,0)" xlink:href="#ap"/><use transform="matrix(0.04938271604938272,0,0,0.04938271604938272,19.75308641975309,0)" xlink:href="#aj"/><use transform="matrix(0.04938271604938272,0,0,0.04938271604938272,29.629629629629633,0)" xlink:href="#al"/><use transform="matrix(0.04938271604938272,0,0,0.04938271604938272,39.50617283950618,0)" xlink:href="#al"/><use transform="matrix(0.04938271604938272,0,0,0.04938271604938272,49.38271604938272,0)" xlink:href="#am"/><use transform="matrix(0.04938271604938272,0,0,0.04938271604938272,59.25925925925927,0)" xlink:href="#ar"/></g><g id="s"><use transform="matrix(0.04938271604938272,0,0,0.04938271604938272,0,0)" xlink:href="#aq"/><use transform="matrix(0.04938271604938272,0,0,0.04938271604938272,10.814814814814815,0)" xlink:href="#am"/><use transform="matrix(0.04938271604938272,0,0,0.04938271604938272,20.69135802469136,0)" xlink:href="#ax"/><use transform="matrix(0.04938271604938272,0,0,0.04938271604938272,25.629629629629633,0)" xlink:href="#ak"/><use transform="matrix(0.04938271604938272,0,0,0.04938271604938272,36.44444444444445,0)" xlink:href="#aj"/><use transform="matrix(0.04938271604938272,0,0,0.04938271604938272,46.320987654320994,0)" xlink:href="#aC"/></g><g id="t"><use transform="matrix(0.04938271604938272,0,0,0.04938271604938272,0,0)" xlink:href="#am"/><use transform="matrix(0.04938271604938272,0,0,0.04938271604938272,9.876543209876544,0)" xlink:href="#at"/></g><path fill="#333" d="M147 0L96-86 75-71V0H25v-261h50v150l67-79h53l-66 74L201 0h-54" id="aF"/><g id="u"><use transform="matrix(0.04938271604938272,0,0,0.04938271604938272,0,0)" xlink:href="#au"/><use transform="matrix(0.04938271604938272,0,0,0.04938271604938272,10.814814814814815,0)" xlink:href="#aF"/></g><path fill="#333" d="M59-47c-2 24 18 29 38 22v24C64 9 27 4 27-40v-127H5v-23h24l9-43h21v43h35v23H59v120" id="aG"/><g id="v"><use transform="matrix(0.06172839506172839,0,0,0.06172839506172839,0,0)" xlink:href="#O"/><use transform="matrix(0.06172839506172839,0,0,0.06172839506172839,12.345679012345679,0)" xlink:href="#S"/><use transform="matrix(0.06172839506172839,0,0,0.06172839506172839,17.22222222222222,0)" xlink:href="#aG"/></g><g id="w"><use transform="matrix(0.04938271604938272,0,0,0.04938271604938272,0,0)" xlink:href="#am"/><use transform="matrix(0.04938271604938272,0,0,0.04938271604938272,9.876543209876544,0)" xlink:href="#ap"/><use transform="matrix(0.04938271604938272,0,0,0.04938271604938272,19.75308641975309,0)" xlink:href="#aj"/><use transform="matrix(0.04938271604938272,0,0,0.04938271604938272,29.629629629629633,0)" xlink:href="#al"/><use transform="matrix(0.04938271604938272,0,0,0.04938271604938272,39.50617283950618,0)" xlink:href="#al"/><use transform="matrix(0.04938271604938272,0,0,0.04938271604938272,49.38271604938272,0)" xlink:href="#am"/></g><path fill="#333" d="M144 0l-44-69L55 0H2l70-98-66-92h53l41 62 40-62h54l-67 91 71 99h-54" id="aH"/><g id="x"><use transform="matrix(0.04938271604938272,0,0,0.04938271604938272,0,0)" xlink:href="#ax"/><use transform="matrix(0.04938271604938272,0,0,0.04938271604938272,4.938271604938272,0)" xlink:href="#ak"/><use transform="matrix(0.04938271604938272,0,0,0.04938271604938272,15.753086419753087,0)" xlink:href="#at"/><use transform="matrix(0.04938271604938272,0,0,0.04938271604938272,26.567901234567902,0)" xlink:href="#aj"/><use transform="matrix(0.04938271604938272,0,0,0.04938271604938272,36.44444444444444,0)" xlink:href="#aH"/></g><path fill="#333" d="M86-200l42-18 12 35-44 11 32 37-32 21-26-44-26 44-32-21 33-37-44-11 12-35 42 18-3-48h38" id="aI"/><use transform="matrix(0.04938271604938272,0,0,0.04938271604938272,0,0)" xlink:href="#aI" id="y"/><g id="z"><use transform="matrix(0.04938271604938272,0,0,0.04938271604938272,0,0)" xlink:href="#ap"/><use transform="matrix(0.04938271604938272,0,0,0.04938271604938272,9.876543209876544,0)" xlink:href="#aC"/><use transform="matrix(0.04938271604938272,0,0,0.04938271604938272,14.814814814814817,0)" xlink:href="#ax"/><use transform="matrix(0.04938271604938272,0,0,0.04938271604938272,19.75308641975309,0)" xlink:href="#aj"/><use transform="matrix(0.04938271604938272,0,0,0.04938271604938272,29.629629629629633,0)" xlink:href="#ak"/><use transform="matrix(0.04938271604938272,0,0,0.04938271604938272,40.44444444444445,0)" xlink:href="#aw"/><use transform="matrix(0.04938271604938272,0,0,0.04938271604938272,46.320987654320994,0)" xlink:href="#aj"/><use transform="matrix(0.04938271604938272,0,0,0.04938271604938272,56.19753086419754,0)" xlink:href="#aD"/><use transform="matrix(0.04938271604938272,0,0,0.04938271604938272,62.074074074074076,0)" xlink:href="#aE"/></g><g id="A"><use transform="matrix(0.04938271604938272,0,0,0.04938271604938272,0,0)" xlink:href="#ap"/><use transform="matrix(0.04938271604938272,0,0,0.04938271604938272,9.876543209876544,0)" xlink:href="#au"/><use transform="matrix(0.04938271604938272,0,0,0.04938271604938272,20.69135802469136,0)" xlink:href="#ao"/><use transform="matrix(0.04938271604938272,0,0,0.04938271604938272,36.49382716049383,0)" xlink:href="#aq"/><use transform="matrix(0.04938271604938272,0,0,0.04938271604938272,47.308641975308646,0)" xlink:href="#am"/><use transform="matrix(0.04938271604938272,0,0,0.04938271604938272,57.18518518518519,0)" xlink:href="#ar"/><use transform="matrix(0.04938271604938272,0,0,0.04938271604938272,64.09876543209877,0)" xlink:href="#am"/></g><use transform="matrix(0.04938271604938272,0,0,0.04938271604938272,0,0)" xlink:href="#am" id="B"/><g id="C"><use transform="matrix(0.04938271604938272,0,0,0.04938271604938272,0,0)" xlink:href="#al"/><use transform="matrix(0.04938271604938272,0,0,0.04938271604938272,9.876543209876544,0)" xlink:href="#aj"/><use transform="matrix(0.04938271604938272,0,0,0.04938271604938272,19.75308641975309,0)" xlink:href="#ak"/><use transform="matrix(0.04938271604938272,0,0,0.04938271604938272,30.567901234567906,0)" xlink:href="#as"/><use transform="matrix(0.04938271604938272,0,0,0.04938271604938272,41.38271604938272,0)" xlink:href="#am"/></g><g id="D"><use transform="matrix(0.04938271604938272,0,0,0.04938271604938272,0,0)" xlink:href="#ar"/><use transform="matrix(0.04938271604938272,0,0,0.04938271604938272,6.913580246913581,0)" xlink:href="#aj"/><use transform="matrix(0.04938271604938272,0,0,0.04938271604938272,16.790123456790127,0)" xlink:href="#aw"/><use transform="matrix(0.04938271604938272,0,0,0.04938271604938272,22.66666666666667,0)" xlink:href="#au"/><use transform="matrix(0.04938271604938272,0,0,0.04938271604938272,33.48148148148149,0)" xlink:href="#ar"/><use transform="matrix(0.04938271604938272,0,0,0.04938271604938272,40.39506172839507,0)" xlink:href="#ak"/><use transform="matrix(0.04938271604938272,0,0,0.04938271604938272,51.209876543209894,0)" xlink:href="#am"/></g><g id="E"><use transform="matrix(0.04938271604938272,0,0,0.04938271604938272,0,0)" xlink:href="#aB"/><use transform="matrix(0.04938271604938272,0,0,0.04938271604938272,11.851851851851853,0)" xlink:href="#ao"/><use transform="matrix(0.04938271604938272,0,0,0.04938271604938272,27.654320987654323,0)" xlink:href="#am"/><use transform="matrix(0.04938271604938272,0,0,0.04938271604938272,37.53086419753087,0)" xlink:href="#ax"/><use transform="matrix(0.04938271604938272,0,0,0.04938271604938272,42.46913580246914,0)" xlink:href="#aC"/></g><path fill="#333" d="M240-174c0 40-23 61-54 70L253 0h-59l-57-94H76V0H24v-248c93 4 217-23 216 74zM76-134c48-2 112 12 112-38 0-48-66-32-112-35v73" id="aJ"/><g id="F"><use transform="matrix(0.04938271604938272,0,0,0.04938271604938272,0,0)" xlink:href="#aJ"/><use transform="matrix(0.04938271604938272,0,0,0.04938271604938272,12.790123456790125,0)" xlink:href="#aj"/><use transform="matrix(0.04938271604938272,0,0,0.04938271604938272,22.66666666666667,0)" xlink:href="#aw"/><use transform="matrix(0.04938271604938272,0,0,0.04938271604938272,28.54320987654322,0)" xlink:href="#au"/><use transform="matrix(0.04938271604938272,0,0,0.04938271604938272,39.35802469135803,0)" xlink:href="#ar"/><use transform="matrix(0.04938271604938272,0,0,0.04938271604938272,46.271604938271615,0)" xlink:href="#ak"/><use transform="matrix(0.04938271604938272,0,0,0.04938271604938272,57.08641975308644,0)" xlink:href="#am"/></g><g id="G"><use transform="matrix(0.04938271604938272,0,0,0.04938271604938272,0,0)" xlink:href="#av"/><use transform="matrix(0.04938271604938272,0,0,0.04938271604938272,10.814814814814815,0)" xlink:href="#al"/><use transform="matrix(0.04938271604938272,0,0,0.04938271604938272,20.69135802469136,0)" xlink:href="#av"/><use transform="matrix(0.04938271604938272,0,0,0.04938271604938272,31.506172839506174,0)" xlink:href="#ar"/><use transform="matrix(0.04938271604938272,0,0,0.04938271604938272,38.41975308641976,0)" xlink:href="#ax"/><use transform="matrix(0.04938271604938272,0,0,0.04938271604938272,43.35802469135803,0)" xlink:href="#au"/></g><g id="H"><use transform="matrix(0.04938271604938272,0,0,0.04938271604938272,0,0)" xlink:href="#aq"/><use transform="matrix(0.04938271604938272,0,0,0.04938271604938272,10.814814814814815,0)" xlink:href="#aj"/><use transform="matrix(0.04938271604938272,0,0,0.04938271604938272,20.69135802469136,0)" xlink:href="#aC"/><use transform="matrix(0.04938271604938272,0,0,0.04938271604938272,25.629629629629633,0)" xlink:href="#au"/></g><g id="I"><use transform="matrix(0.04938271604938272,0,0,0.04938271604938272,0,0)" xlink:href="#aB"/><use transform="matrix(0.04938271604938272,0,0,0.04938271604938272,11.851851851851853,0)" xlink:href="#ao"/><use transform="matrix(0.04938271604938272,0,0,0.04938271604938272,27.654320987654323,0)" xlink:href="#am"/><use transform="matrix(0.04938271604938272,0,0,0.04938271604938272,37.53086419753087,0)" xlink:href="#ax"/><use transform="matrix(0.04938271604938272,0,0,0.04938271604938272,42.46913580246914,0)" xlink:href="#aC"/></g><g id="J"><use transform="matrix(0.04938271604938272,0,0,0.04938271604938272,0,0)" xlink:href="#an"/><use transform="matrix(0.04938271604938272,0,0,0.04938271604938272,10.814814814814815,0)" xlink:href="#aj"/><use transform="matrix(0.04938271604938272,0,0,0.04938271604938272,20.69135802469136,0)" xlink:href="#ar"/><use transform="matrix(0.04938271604938272,0,0,0.04938271604938272,27.604938271604947,0)" xlink:href="#am"/><use transform="matrix(0.04938271604938272,0,0,0.04938271604938272,37.48148148148149,0)" xlink:href="#ar"/></g><g id="K"><use transform="matrix(0.04938271604938272,0,0,0.04938271604938272,0,0)" xlink:href="#ax"/><use transform="matrix(0.04938271604938272,0,0,0.04938271604938272,4.938271604938272,0)" xlink:href="#at"/></g><g id="L"><use transform="matrix(0.04938271604938272,0,0,0.04938271604938272,0,0)" xlink:href="#aq"/><use transform="matrix(0.04938271604938272,0,0,0.04938271604938272,10.814814814814815,0)" xlink:href="#am"/><use transform="matrix(0.04938271604938272,0,0,0.04938271604938272,20.69135802469136,0)" xlink:href="#ar"/><use transform="matrix(0.04938271604938272,0,0,0.04938271604938272,27.604938271604947,0)" xlink:href="#am"/></g><g id="M"><use transform="matrix(0.04938271604938272,0,0,0.04938271604938272,0,0)" xlink:href="#av"/><use transform="matrix(0.04938271604938272,0,0,0.04938271604938272,10.814814814814815,0)" xlink:href="#al"/><use transform="matrix(0.04938271604938272,0,0,0.04938271604938272,20.69135802469136,0)" xlink:href="#av"/><use transform="matrix(0.04938271604938272,0,0,0.04938271604938272,31.506172839506174,0)" xlink:href="#am"/><use transform="matrix(0.04938271604938272,0,0,0.04938271604938272,41.38271604938272,0)" xlink:href="#ar"/><use transform="matrix(0.04938271604938272,0,0,0.04938271604938272,48.296296296296305,0)" xlink:href="#ax"/><use transform="matrix(0.04938271604938272,0,0,0.04938271604938272,53.23456790123457,0)" xlink:href="#au"/></g></defs></g></svg>