<svg xmlns="http://www.w3.org/2000/svg" xmlns:xlink="http://www.w3.org/1999/xlink" xmlns:lucid="lucid" width="1035.64" height="1150"><g transform="translate(-93.22941522307647 -60)" lucid:page-tab-id="0_0"><path d="M0 0h1870.4v1323.2H0z" fill="#fff"/><path d="M206.9 199.75c0 10.9-8.84 19.75-19.75 19.75-10.9 0-19.75-8.84-19.75-19.75 0-10.9 8.84-19.75 19.75-19.75 10.9 0 19.75 8.84 19.75 19.75z" stroke="#5e5e5e" stroke-width="3" fill="#fff"/><path d="M187.15 219.5v49.3c0 3.3 1.85 7.95 4.13 10.35L247.15 338m-60-63.2l-60 63.2m0-98.75h120" stroke="#5e5e5e" stroke-width="3" fill="none"/><path d="M127.15 186c0-3.3 2.7-6 6-6h108c3.3 0 6 2.7 6 6v168c0 3.3-2.7 6-6 6h-108c-3.3 0-6-2.7-6-6z" fill="none"/><use xlink:href="#a" transform="matrix(1,0,0,1,47.149818387347295,338) translate(106.11111111111111 17.77777777777778)"/><path d="M660 130c0 27.6-35.82 50-80 50s-80-22.4-80-50 35.82-50 80-50 80 22.4 80 50z" stroke="#5e5e5e" stroke-width="3" fill="#fff"/><use xlink:href="#b" transform="matrix(1,0,0,1,500,80) translate(40.58 39.4)"/><use xlink:href="#c" transform="matrix(1,0,0,1,500,80) translate(14.579999999999993 61)"/><path d="M650 270c0 22.1-31.34 40-70 40s-70-17.9-70-40 31.34-40 70-40 70 17.9 70 40z" stroke="#5e5e5e" stroke-width="3" fill="#fff"/><use xlink:href="#d" transform="matrix(1,0,0,1,510,230) translate(44.10499999999999 31.9)"/><use xlink:href="#e" transform="matrix(1,0,0,1,510,230) translate(39.08 53.5)"/><path d="M650 400c0 22.1-31.34 40-70 40s-70-17.9-70-40 31.34-40 70-40 70 17.9 70 40z" stroke="#5e5e5e" stroke-width="3" fill="#fff"/><use xlink:href="#f" transform="matrix(1,0,0,1,510,360) translate(44.10499999999999 31.9)"/><use xlink:href="#g" transform="matrix(1,0,0,1,510,360) translate(37.55499999999999 53.5)"/><use xlink:href="#h" transform="matrix(1,0,0,1,510,360) translate(52.555 53.5)"/><path d="M660 540c0 22.1-33.58 40-75 40s-75-17.9-75-40 33.58-40 75-40 75 17.9 75 40z" stroke="#5e5e5e" stroke-width="3" fill="#fff"/><use xlink:href="#i" transform="matrix(1,0,0,1,510,500) translate(36.08 31.9)"/><use xlink:href="#j" transform="matrix(1,0,0,1,510,500) translate(37.03 53.5)"/><use xlink:href="#k" transform="matrix(1,0,0,1,510,500) translate(52.03 53.5)"/><path d="M660 661.6c0 22.1-29.1 40-65 40s-65-17.9-65-40 29.1-40 65-40 65 17.9 65 40z" stroke="#5e5e5e" stroke-width="3" fill="#fff"/><use xlink:href="#l" transform="matrix(1,0,0,1,530,621.5999999999999) translate(24.554999999999996 31.9)"/><use xlink:href="#j" transform="matrix(1,0,0,1,530,621.5999999999999) translate(28.054999999999996 53.5)"/><use xlink:href="#m" transform="matrix(1,0,0,1,530,621.5999999999999) translate(43.055 53.5)"/><path d="M660 800c0 22.1-29.1 40-65 40s-65-17.9-65-40 29.1-40 65-40 65 17.9 65 40z" stroke="#5e5e5e" stroke-width="3" fill="#fff"/><use xlink:href="#n" transform="matrix(1,0,0,1,530,760) translate(32.10499999999999 31.9)"/><use xlink:href="#o" transform="matrix(1,0,0,1,530,760) translate(37.03 53.5)"/><path d="M665 930c0 27.6-31.34 50-70 50s-70-22.4-70-50 31.34-50 70-50 70 22.4 70 50z" stroke="#5e5e5e" stroke-width="3" fill="#fff"/><use xlink:href="#p" transform="matrix(1,0,0,1,525,880) translate(19.054999999999996 42.525)"/><use xlink:href="#j" transform="matrix(1,0,0,1,525,880) translate(34.53 64.125)"/><use xlink:href="#q" transform="matrix(1,0,0,1,525,880) translate(49.53 64.125)"/><path d="M670 1145c0 24.85-33.58 45-75 45s-75-20.15-75-45 33.58-45 75-45 75 20.15 75 45z" stroke="#5e5e5e" stroke-width="3" fill="#fff"/><use xlink:href="#r" transform="matrix(1,0,0,1,520,1100) translate(36.28 36.9)"/><use xlink:href="#j" transform="matrix(1,0,0,1,520,1100) translate(39.53 58.5)"/><use xlink:href="#q" transform="matrix(1,0,0,1,520,1100) translate(54.53 58.5)"/><path d="M193.6 716.52c0 11.25-9.12 20.36-20.37 20.36-11.25 0-20.36-9.1-20.36-20.36 0-11.24 9.1-20.36 20.36-20.36 11.25 0 20.36 9.12 20.36 20.36z" stroke="#5e5e5e" stroke-width="3" fill="#fff"/><path d="M173.23 736.88v51.02c0 3.3 1.82 7.97 4.06 10.4l55.93 60.76m-60-65.16l-60 65.16m0-101.8h120" stroke="#5e5e5e" stroke-width="3" fill="none"/><path d="M113.23 702.16c0-3.3 2.7-6 6-6h108c3.3 0 6 2.7 6 6v172.9c0 3.3-2.7 6-6 6h-108c-3.3 0-6-2.7-6-6z" fill="none"/><use xlink:href="#s" transform="matrix(1,0,0,1,33.22941522307647,859.0567458320088) translate(105.52469135802468 17.77777777777778)"/><path d="M353.23 940c0 22.1-26.86 40-60 40s-60-17.9-60-40 26.86-40 60-40 60 17.9 60 40z" stroke="#5e5e5e" stroke-width="3" fill="#fff"/><use xlink:href="#t" transform="matrix(1,0,0,1,233.22941522307647,900) translate(27.080000000000002 31.9)"/><use xlink:href="#u" transform="matrix(1,0,0,1,233.22941522307647,900) translate(82.93 31.9)"/><use xlink:href="#v" transform="matrix(1,0,0,1,233.22941522307647,900) translate(38.03 53.5)"/><path d="M940 230c0 27.6-40.3 50-90 50s-90-22.4-90-50 40.3-50 90-50 90 22.4 90 50z" stroke="#5e5e5e" stroke-width="3" fill="#fff"/><use xlink:href="#w" transform="matrix(1,0,0,1,760,180) translate(55.07999999999999 25.41)"/><use xlink:href="#x" transform="matrix(1,0,0,1,760,180) translate(31.055 47.01)"/><use xlink:href="#c" transform="matrix(1,0,0,1,760,180) translate(24.579999999999995 68.61)"/><path d="M920 651.6c0 27.6-31.34 50-70 50s-70-22.4-70-50 31.34-50 70-50 70 22.4 70 50z" stroke="#5e5e5e" stroke-width="3" fill="#fff"/><use xlink:href="#y" transform="matrix(1,0,0,1,780,601.5999999999999) translate(21.60499999999999 55.025)"/><use xlink:href="#z" transform="matrix(1,0,0,1,780,601.5999999999999) translate(78.405 55.025)"/><use xlink:href="#A" transform="matrix(1,0,0,1,780,601.5999999999999) translate(93.405 55.025)"/><path d="M1059.75 339.75c0 10.9-8.84 19.75-19.75 19.75-10.9 0-19.75-8.84-19.75-19.75 0-10.9 8.84-19.75 19.75-19.75 10.9 0 19.75 8.84 19.75 19.75z" stroke="#5e5e5e" stroke-width="3" fill="#fff"/><path d="M1040 359.5v49.3c0 3.3 1.44 8.27 3.2 11.07L1080 478m-40-63.2l-40 63.2m0-98.75h80" stroke="#5e5e5e" stroke-width="3" fill="none"/><path d="M1000 326c0-3.3 2.7-6 6-6h68c3.3 0 6 2.7 6 6v168c0 3.3-2.7 6-6 6h-68c-3.3 0-6-2.7-6-6z" fill="none"/><use xlink:href="#B" transform="matrix(1,0,0,1,920,478) translate(52.87037037037037 17.77777777777778)"/><path d="M1062.3 931.3c0 8.15-6.6 14.76-14.74 14.76s-14.75-6.6-14.75-14.75c0-8.14 6.62-14.74 14.76-14.74 8.15 0 14.75 6.6 14.75 14.75z" stroke="#5e5e5e" stroke-width="3" fill="#fff"/><path d="M1047.56 946.06v35.3c0 3.3 1.45 8.26 3.22 11.06l26.78 42.14m-30-47.2l-30 47.2m0-73.75h60" stroke="#5e5e5e" stroke-width="3" fill="none"/><path d="M1017.56 922.56c0-3.32 2.7-6 6-6h48c3.32 0 6 2.68 6 6v128c0 3.3-2.68 6-6 6h-48c-3.3 0-6-2.7-6-6z" fill="none"/><use xlink:href="#C" transform="matrix(1,0,0,1,937.5641558425916,1034.5562326765048) translate(55.12345679012345 17.77777777777778)"/><path d="M1053.06 689.5c0 6.87-5.58 12.44-12.45 12.44-6.87 0-12.44-5.57-12.44-12.45 0-6.88 5.57-12.46 12.45-12.46 6.88 0 12.46 5.58 12.46 12.45z" stroke="#5e5e5e" stroke-width="3" fill="#fff"/><path d="M1040.6 701.94v28.86c0 3.32 1.62 8.15 3.62 10.8l26.4 35.04m-30-39.84l-30 39.84m0-62.25h60" stroke="#5e5e5e" stroke-width="3" fill="none"/><path d="M1010.6 683.04c0-3.3 2.7-6 6-6h48c3.32 0 6 2.7 6 6v109.6c0 3.32-2.68 6-6 6h-48c-3.3 0-6-2.68-6-6z" fill="none"/><use xlink:href="#D" transform="matrix(1,0,0,1,930.6086091990788,776.6440298928554) translate(52.09876543209875 17.77777777777778)"/><path d="M486.26 140.22c.25-.12.55-.02.67.23s.02.55-.23.67L260.9 253.08c-.26.12-.56.02-.68-.23-.12-.24-.02-.54.23-.67zM502.32 515.65c.2.18.23.5.06.7-.18.22-.5.25-.7.07L262 314.5c-.2-.18-.24-.5-.06-.7.17-.22.5-.25.7-.07zM509.52 366c.26.08.42.36.35.62-.07.27-.35.43-.62.35l-241.9-65.87c-.26-.08-.42-.35-.35-.62.08-.26.35-.42.62-.35zM499.26 665.03c.27-.07.54.08.6.35.08.27-.08.54-.34.6l-265.55 71c-.27.1-.54-.07-.6-.34-.08-.27.08-.54.34-.6zM511.95 797.6c.27.03.48.27.46.55 0 .27-.24.48-.52.46l-280.57-19c-.27 0-.48-.25-.46-.53.02-.27.26-.48.53-.46zM508.97 894.8c.26.08.42.36.34.62-.07.27-.35.42-.6.34L239.12 815.6c-.27-.07-.42-.35-.34-.6.07-.28.35-.43.6-.35z" stroke="#5e5e5e" stroke-width="3"/><path d="M522.5 931h-10.07v-2h10.07zm-141 0H371.4v-2h10.07zm120.85 0h-14.83v-2h14.83z" fill="#5e5e5e"/><path d="M523.5 930l.03 1h-1.06v-2h1.06zM370.42 934.64L356.15 930l14.27-4.64z" fill="#5e5e5e"/><path d="M371.42 936l-18.5-6 18.5-6zm-12.03-6l10.02 3.26v-6.52z" fill="#5e5e5e"/><use xlink:href="#E" transform="matrix(1,0,0,1,388.89922410494455,919.3333333333334) translate(0 14.222222222222223)"/><path d="M596 1080h-2v-10.84h2zm0-21.67h-2v-15.66h2zm0-37h-2v-17.16h2zm0-28h-2V982.5h2z" fill="#5e5e5e"/><path d="M595 981.5l1-.03v1.06h-2v-1.06zM595 1095.26l-4.64-14.26h9.28z" fill="#5e5e5e"/><path d="M595 1098.5l-6-18.5h12zm-3.26-16.5l3.26 10.03 3.26-10.03z" fill="#5e5e5e"/><g><use xlink:href="#F" transform="matrix(1,0,0,1,543.2222222222222,1021.3333333333334) translate(0 14.222222222222223)"/></g><g><path d="M969.16 962.73c.28.03.48.27.46.54-.02.28-.26.48-.54.46l-288.58-22.7c-.28-.02-.48-.26-.46-.53.02-.28.26-.48.54-.46z" stroke="#5e5e5e" stroke-width="3"/></g><g><path d="M1003 915.45c.23.16.28.47.12.7-.16.22-.47.28-.7.12l-322.86-230c-.23-.15-.28-.46-.12-.7.16-.2.47-.27.7-.1z" stroke="#5e5e5e" stroke-width="3"/></g><g><path d="M1009.55 425.4c.2-.2.5-.2.7 0 .2.2.2.5 0 .7L833.9 602.5c-.2.18-.5.18-.7 0-.2-.2-.2-.53 0-.72z" stroke="#5e5e5e" stroke-width="3"/></g><g><path d="M1003.37 411.9c.27-.05.54.12.6.4.06.25-.1.52-.37.6l-367.42 85.9c-.27.07-.54-.1-.6-.36-.06-.27.1-.54.37-.6z" stroke="#5e5e5e" stroke-width="3"/></g><g><path d="M986.6 382c.27.07.42.35.34.6-.08.28-.36.43-.62.35L660.48 285.1c-.27-.07-.42-.34-.34-.6.08-.27.36-.42.63-.34z" stroke="#5e5e5e" stroke-width="3"/></g><g><path d="M984.24 363.86c.16.22.12.53-.1.7-.2.17-.53.13-.7-.1l-63.13-81.9c-.16-.22-.12-.53.1-.7.2-.17.53-.13.7.1z" stroke="#5e5e5e" stroke-width="3"/></g><path d="M1040.65 740.3l6.87 173.74M1040.65 740.32l-.16-4.02" stroke="#5e5e5e" stroke-width="2" fill="none"/><path d="M1048.57 915.18l-1-.14-1 .13-.05-1.1 2-.1zM580.5 212.12h-1v-2.8h1zm0-25.1h-1V182h1zM579.98 181.5h.52v.5h-1v-.5zM580 226.88l-4.64-14.26h9.28z" fill="#5e5e5e"/><path d="M580 228.5l-5.32-16.38h10.64zm-3.95-15.38l3.95 12.14 3.95-12.14z" fill="#5e5e5e"/><g><use xlink:href="#G" transform="matrix(1,0,0,1,533.4074074074074,188) translate(0 14.222222222222223)"/></g><defs><path fill="#333" d="M240 0l2-218c-23 76-54 145-80 218h-23L58-218 59 0H30v-248h44l77 211c21-75 51-140 76-211h43V0h-30" id="H"/><path fill="#333" d="M141-36C126-15 110 5 73 4 37 3 15-17 15-53c-1-64 63-63 125-63 3-35-9-54-41-54-24 1-41 7-42 31l-33-3c5-37 33-52 76-52 45 0 72 20 72 64v82c-1 20 7 32 28 27v20c-31 9-61-2-59-35zM48-53c0 20 12 33 32 33 41-3 63-29 60-74-43 2-92-5-92 41" id="I"/><path fill="#333" d="M135-143c-3-34-86-38-87 0 15 53 115 12 119 90S17 21 10-45l28-5c4 36 97 45 98 0-10-56-113-15-118-90-4-57 82-63 122-42 12 7 21 19 24 35" id="J"/><path fill="#333" d="M59-47c-2 24 18 29 38 22v24C64 9 27 4 27-40v-127H5v-23h24l9-43h21v43h35v23H59v120" id="K"/><path fill="#333" d="M100-194c63 0 86 42 84 106H49c0 40 14 67 53 68 26 1 43-12 49-29l28 8c-11 28-37 45-77 45C44 4 14-33 15-96c1-61 26-98 85-98zm52 81c6-60-76-77-97-28-3 7-6 17-6 28h103" id="L"/><path fill="#333" d="M114-163C36-179 61-72 57 0H25l-1-190h30c1 12-1 29 2 39 6-27 23-49 58-41v29" id="M"/><g id="a"><use transform="matrix(0.06172839506172839,0,0,0.06172839506172839,0,0)" xlink:href="#H"/><use transform="matrix(0.06172839506172839,0,0,0.06172839506172839,18.456790123456788,0)" xlink:href="#I"/><use transform="matrix(0.06172839506172839,0,0,0.06172839506172839,30.80246913580247,0)" xlink:href="#J"/><use transform="matrix(0.06172839506172839,0,0,0.06172839506172839,41.91358024691358,0)" xlink:href="#K"/><use transform="matrix(0.06172839506172839,0,0,0.06172839506172839,48.086419753086425,0)" xlink:href="#L"/><use transform="matrix(0.06172839506172839,0,0,0.06172839506172839,60.4320987654321,0)" xlink:href="#M"/></g><path d="M143 4C61 4 22-44 18-125c-5-107 100-154 193-111 17 8 29 25 37 43l-32 9c-13-25-37-40-76-40-61 0-88 39-88 99 0 61 29 100 91 101 35 0 62-11 79-27v-45h-74v-28h105v86C228-13 192 4 143 4" id="N"/><path d="M100-194c63 0 86 42 84 106H49c0 40 14 67 53 68 26 1 43-12 49-29l28 8c-11 28-37 45-77 45C44 4 14-33 15-96c1-61 26-98 85-98zm52 81c6-60-76-77-97-28-3 7-6 17-6 28h103" id="O"/><path d="M114-163C36-179 61-72 57 0H25l-1-190h30c1 12-1 29 2 39 6-27 23-49 58-41v29" id="P"/><path d="M117-194c89-4 53 116 60 194h-32v-121c0-31-8-49-39-48C34-167 62-67 57 0H25l-1-190h30c1 10-1 24 2 32 11-22 29-35 61-36" id="Q"/><path d="M96-169c-40 0-48 33-48 73s9 75 48 75c24 0 41-14 43-38l32 2c-6 37-31 61-74 61-59 0-76-41-82-99-10-93 101-131 147-64 4 7 5 14 7 22l-32 3c-4-21-16-35-41-35" id="R"/><path d="M24-231v-30h32v30H24zM24 0v-190h32V0H24" id="S"/><path d="M141-36C126-15 110 5 73 4 37 3 15-17 15-53c-1-64 63-63 125-63 3-35-9-54-41-54-24 1-41 7-42 31l-33-3c5-37 33-52 76-52 45 0 72 20 72 64v82c-1 20 7 32 28 27v20c-31 9-61-2-59-35zM48-53c0 20 12 33 32 33 41-3 63-29 60-74-43 2-92-5-92 41" id="T"/><g id="b"><use transform="matrix(0.05,0,0,0.05,0,0)" xlink:href="#N"/><use transform="matrix(0.05,0,0,0.05,14,0)" xlink:href="#O"/><use transform="matrix(0.05,0,0,0.05,24,0)" xlink:href="#P"/><use transform="matrix(0.05,0,0,0.05,29.950000000000003,0)" xlink:href="#O"/><use transform="matrix(0.05,0,0,0.05,39.95,0)" xlink:href="#Q"/><use transform="matrix(0.05,0,0,0.05,49.95,0)" xlink:href="#R"/><use transform="matrix(0.05,0,0,0.05,58.95,0)" xlink:href="#S"/><use transform="matrix(0.05,0,0,0.05,62.900000000000006,0)" xlink:href="#T"/><use transform="matrix(0.05,0,0,0.05,72.9,0)" xlink:href="#P"/></g><path d="M135-143c-3-34-86-38-87 0 15 53 115 12 119 90S17 21 10-45l28-5c4 36 97 45 98 0-10-56-113-15-118-90-4-57 82-63 122-42 12 7 21 19 24 35" id="U"/><path d="M59-47c-2 24 18 29 38 22v24C64 9 27 4 27-40v-127H5v-23h24l9-43h21v43h35v23H59v120" id="V"/><path d="M115-194c53 0 69 39 70 98 0 66-23 100-70 100C84 3 66-7 56-30L54 0H23l1-261h32v101c10-23 28-34 59-34zm-8 174c40 0 45-34 45-75 0-40-5-75-45-74-42 0-51 32-51 76 0 43 10 73 51 73" id="W"/><path d="M24 0v-261h32V0H24" id="X"/><path d="M210-169c-67 3-38 105-44 169h-31v-121c0-29-5-50-35-48C34-165 62-65 56 0H25l-1-190h30c1 10-1 24 2 32 10-44 99-50 107 0 11-21 27-35 58-36 85-2 47 119 55 194h-31v-121c0-29-5-49-35-48" id="Y"/><path d="M100-194c62-1 85 37 85 99 1 63-27 99-86 99S16-35 15-95c0-66 28-99 85-99zM99-20c44 1 53-31 53-75 0-43-8-75-51-75s-53 32-53 75 10 74 51 75" id="Z"/><g id="c"><use transform="matrix(0.05,0,0,0.05,0,0)" xlink:href="#O"/><use transform="matrix(0.05,0,0,0.05,10,0)" xlink:href="#U"/><use transform="matrix(0.05,0,0,0.05,19,0)" xlink:href="#V"/><use transform="matrix(0.05,0,0,0.05,24,0)" xlink:href="#T"/><use transform="matrix(0.05,0,0,0.05,34,0)" xlink:href="#W"/><use transform="matrix(0.05,0,0,0.05,44,0)" xlink:href="#O"/><use transform="matrix(0.05,0,0,0.05,54,0)" xlink:href="#X"/><use transform="matrix(0.05,0,0,0.05,57.95,0)" xlink:href="#O"/><use transform="matrix(0.05,0,0,0.05,67.95,0)" xlink:href="#R"/><use transform="matrix(0.05,0,0,0.05,76.95,0)" xlink:href="#S"/><use transform="matrix(0.05,0,0,0.05,80.9,0)" xlink:href="#Y"/><use transform="matrix(0.05,0,0,0.05,95.85000000000001,0)" xlink:href="#O"/><use transform="matrix(0.05,0,0,0.05,105.85000000000001,0)" xlink:href="#Q"/><use transform="matrix(0.05,0,0,0.05,115.85000000000001,0)" xlink:href="#V"/><use transform="matrix(0.05,0,0,0.05,120.85000000000001,0)" xlink:href="#Z"/></g><path d="M30-248c118-7 216 8 213 122C240-48 200 0 122 0H30v-248zM63-27c89 8 146-16 146-99s-60-101-146-95v194" id="aa"/><path d="M101-234c-31-9-42 10-38 44h38v23H63V0H32v-167H5v-23h27c-7-52 17-82 69-68v24" id="ab"/><g id="d"><use transform="matrix(0.05,0,0,0.05,0,0)" xlink:href="#aa"/><use transform="matrix(0.05,0,0,0.05,12.950000000000001,0)" xlink:href="#O"/><use transform="matrix(0.05,0,0,0.05,22.950000000000003,0)" xlink:href="#ab"/><use transform="matrix(0.05,0,0,0.05,27.950000000000003,0)" xlink:href="#S"/><use transform="matrix(0.05,0,0,0.05,31.900000000000002,0)" xlink:href="#Q"/><use transform="matrix(0.05,0,0,0.05,41.900000000000006,0)" xlink:href="#S"/><use transform="matrix(0.05,0,0,0.05,45.85000000000001,0)" xlink:href="#P"/></g><path d="M232-93c-1 65-40 97-104 97C67 4 28-28 28-90v-158h33c8 89-33 224 67 224 102 0 64-133 71-224h33v155" id="ac"/><path d="M84 4C-5 8 30-112 23-190h32v120c0 31 7 50 39 49 72-2 45-101 50-169h31l1 190h-30c-1-10 1-25-2-33-11 22-28 36-60 37" id="ad"/><g id="e"><use transform="matrix(0.05,0,0,0.05,0,0)" xlink:href="#ac"/><use transform="matrix(0.05,0,0,0.05,12.950000000000001,0)" xlink:href="#U"/><use transform="matrix(0.05,0,0,0.05,21.950000000000003,0)" xlink:href="#ad"/><use transform="matrix(0.05,0,0,0.05,31.950000000000003,0)" xlink:href="#T"/><use transform="matrix(0.05,0,0,0.05,41.95,0)" xlink:href="#P"/><use transform="matrix(0.05,0,0,0.05,47.900000000000006,0)" xlink:href="#S"/><use transform="matrix(0.05,0,0,0.05,51.85,0)" xlink:href="#Z"/></g><g id="f"><use transform="matrix(0.05,0,0,0.05,0,0)" xlink:href="#aa"/><use transform="matrix(0.05,0,0,0.05,12.950000000000001,0)" xlink:href="#O"/><use transform="matrix(0.05,0,0,0.05,22.950000000000003,0)" xlink:href="#ab"/><use transform="matrix(0.05,0,0,0.05,27.950000000000003,0)" xlink:href="#S"/><use transform="matrix(0.05,0,0,0.05,31.900000000000002,0)" xlink:href="#Q"/><use transform="matrix(0.05,0,0,0.05,41.900000000000006,0)" xlink:href="#S"/><use transform="matrix(0.05,0,0,0.05,45.85000000000001,0)" xlink:href="#P"/></g><use transform="matrix(0.05,0,0,0.05,0,0)" xlink:href="#T" id="g"/><g id="h"><use transform="matrix(0.05,0,0,0.05,0,0)" xlink:href="#Y"/><use transform="matrix(0.05,0,0,0.05,14.950000000000001,0)" xlink:href="#T"/><use transform="matrix(0.05,0,0,0.05,24.950000000000003,0)" xlink:href="#P"/><use transform="matrix(0.05,0,0,0.05,30.900000000000002,0)" xlink:href="#R"/><use transform="matrix(0.05,0,0,0.05,39.900000000000006,0)" xlink:href="#T"/></g><path d="M30-248c87 1 191-15 191 75 0 78-77 80-158 76V0H30v-248zm33 125c57 0 124 11 124-50 0-59-68-47-124-48v98" id="ae"/><path d="M108 0H70L1-190h34L89-25l56-165h34" id="af"/><g id="i"><use transform="matrix(0.05,0,0,0.05,0,0)" xlink:href="#ae"/><use transform="matrix(0.05,0,0,0.05,12,0)" xlink:href="#P"/><use transform="matrix(0.05,0,0,0.05,17.95,0)" xlink:href="#Z"/><use transform="matrix(0.05,0,0,0.05,27.950000000000003,0)" xlink:href="#Y"/><use transform="matrix(0.05,0,0,0.05,42.9,0)" xlink:href="#Z"/><use transform="matrix(0.05,0,0,0.05,52.900000000000006,0)" xlink:href="#af"/><use transform="matrix(0.05,0,0,0.05,61.900000000000006,0)" xlink:href="#O"/><use transform="matrix(0.05,0,0,0.05,71.9,0)" xlink:href="#P"/></g><use transform="matrix(0.05,0,0,0.05,0,0)" xlink:href="#Z" id="j"/><path d="M115-194c55 1 70 41 70 98S169 2 115 4C84 4 66-9 55-30l1 105H24l-1-265h31l2 30c10-21 28-34 59-34zm-8 174c40 0 45-34 45-75s-6-73-45-74c-42 0-51 32-51 76 0 43 10 73 51 73" id="ag"/><path d="M85-194c31 0 48 13 60 33l-1-100h32l1 261h-30c-2-10 0-23-3-31C134-8 116 4 85 4 32 4 16-35 15-94c0-66 23-100 70-100zm9 24c-40 0-46 34-46 75 0 40 6 74 45 74 42 0 51-32 51-76 0-42-9-74-50-73" id="ah"/><g id="k"><use transform="matrix(0.05,0,0,0.05,0,0)" xlink:href="#ag"/><use transform="matrix(0.05,0,0,0.05,10,0)" xlink:href="#P"/><use transform="matrix(0.05,0,0,0.05,15.949999999999998,0)" xlink:href="#Z"/><use transform="matrix(0.05,0,0,0.05,25.950000000000003,0)" xlink:href="#ah"/><use transform="matrix(0.05,0,0,0.05,35.95,0)" xlink:href="#ad"/><use transform="matrix(0.05,0,0,0.05,45.95,0)" xlink:href="#V"/><use transform="matrix(0.05,0,0,0.05,50.95,0)" xlink:href="#Z"/></g><path d="M205 0l-28-72H64L36 0H1l101-248h38L239 0h-34zm-38-99l-47-123c-12 45-31 82-46 123h93" id="ai"/><g id="l"><use transform="matrix(0.05,0,0,0.05,0,0)" xlink:href="#ai"/><use transform="matrix(0.05,0,0,0.05,12,0)" xlink:href="#ad"/><use transform="matrix(0.05,0,0,0.05,22,0)" xlink:href="#V"/><use transform="matrix(0.05,0,0,0.05,27,0)" xlink:href="#O"/><use transform="matrix(0.05,0,0,0.05,37,0)" xlink:href="#Q"/><use transform="matrix(0.05,0,0,0.05,47,0)" xlink:href="#V"/><use transform="matrix(0.05,0,0,0.05,52,0)" xlink:href="#S"/><use transform="matrix(0.05,0,0,0.05,55.95,0)" xlink:href="#R"/><use transform="matrix(0.05,0,0,0.05,64.95,0)" xlink:href="#T"/><use transform="matrix(0.05,0,0,0.05,74.95,0)" xlink:href="#P"/></g><g id="m"><use transform="matrix(0.05,0,0,0.05,0,0)" xlink:href="#ad"/><use transform="matrix(0.05,0,0,0.05,10,0)" xlink:href="#U"/><use transform="matrix(0.05,0,0,0.05,19,0)" xlink:href="#ad"/><use transform="matrix(0.05,0,0,0.05,29,0)" xlink:href="#T"/><use transform="matrix(0.05,0,0,0.05,39,0)" xlink:href="#P"/><use transform="matrix(0.05,0,0,0.05,44.95,0)" xlink:href="#S"/><use transform="matrix(0.05,0,0,0.05,48.900000000000006,0)" xlink:href="#Z"/></g><path d="M233-177c-1 41-23 64-60 70L243 0h-38l-65-103H63V0H30v-248c88 3 205-21 203 71zM63-129c60-2 137 13 137-47 0-61-80-42-137-45v92" id="aj"/><path d="M9 0v-24l116-142H16v-24h144v24L44-24h123V0H9" id="ak"/><g id="n"><use transform="matrix(0.05,0,0,0.05,0,0)" xlink:href="#aj"/><use transform="matrix(0.05,0,0,0.05,12.950000000000001,0)" xlink:href="#O"/><use transform="matrix(0.05,0,0,0.05,22.950000000000003,0)" xlink:href="#T"/><use transform="matrix(0.05,0,0,0.05,32.95,0)" xlink:href="#X"/><use transform="matrix(0.05,0,0,0.05,36.900000000000006,0)" xlink:href="#S"/><use transform="matrix(0.05,0,0,0.05,40.85000000000001,0)" xlink:href="#ak"/><use transform="matrix(0.05,0,0,0.05,49.85000000000001,0)" xlink:href="#T"/><use transform="matrix(0.05,0,0,0.05,59.85,0)" xlink:href="#P"/></g><g id="o"><use transform="matrix(0.05,0,0,0.05,0,0)" xlink:href="#ae"/><use transform="matrix(0.05,0,0,0.05,12,0)" xlink:href="#O"/><use transform="matrix(0.05,0,0,0.05,22,0)" xlink:href="#ah"/><use transform="matrix(0.05,0,0,0.05,32,0)" xlink:href="#S"/><use transform="matrix(0.05,0,0,0.05,35.95,0)" xlink:href="#ah"/><use transform="matrix(0.05,0,0,0.05,45.95,0)" xlink:href="#Z"/></g><path d="M106-169C34-169 62-67 57 0H25v-261h32l-1 103c12-21 28-36 61-36 89 0 53 116 60 194h-32v-121c2-32-8-49-39-48" id="al"/><g id="p"><use transform="matrix(0.05,0,0,0.05,0,0)" xlink:href="#ai"/><use transform="matrix(0.05,0,0,0.05,12,0)" xlink:href="#R"/><use transform="matrix(0.05,0,0,0.05,21,0)" xlink:href="#Z"/><use transform="matrix(0.05,0,0,0.05,31,0)" xlink:href="#Y"/><use transform="matrix(0.05,0,0,0.05,45.95,0)" xlink:href="#ag"/><use transform="matrix(0.05,0,0,0.05,55.95,0)" xlink:href="#T"/><use transform="matrix(0.05,0,0,0.05,65.95,0)" xlink:href="#Q"/><use transform="matrix(0.05,0,0,0.05,75.95,0)" xlink:href="#al"/><use transform="matrix(0.05,0,0,0.05,85.95,0)" xlink:href="#T"/><use transform="matrix(0.05,0,0,0.05,95.95,0)" xlink:href="#P"/></g><g id="q"><use transform="matrix(0.05,0,0,0.05,0,0)" xlink:href="#ae"/><use transform="matrix(0.05,0,0,0.05,12,0)" xlink:href="#O"/><use transform="matrix(0.05,0,0,0.05,22,0)" xlink:href="#ah"/><use transform="matrix(0.05,0,0,0.05,32,0)" xlink:href="#S"/><use transform="matrix(0.05,0,0,0.05,35.95,0)" xlink:href="#ah"/><use transform="matrix(0.05,0,0,0.05,45.95,0)" xlink:href="#Z"/></g><path d="M137 0h-34L2-248h35l83 218 83-218h36" id="am"/><g id="r"><use transform="matrix(0.05,0,0,0.05,0,0)" xlink:href="#am"/><use transform="matrix(0.05,0,0,0.05,11.65,0)" xlink:href="#S"/><use transform="matrix(0.05,0,0,0.05,15.600000000000001,0)" xlink:href="#U"/><use transform="matrix(0.05,0,0,0.05,24.6,0)" xlink:href="#ad"/><use transform="matrix(0.05,0,0,0.05,34.6,0)" xlink:href="#T"/><use transform="matrix(0.05,0,0,0.05,44.6,0)" xlink:href="#X"/><use transform="matrix(0.05,0,0,0.05,48.550000000000004,0)" xlink:href="#S"/><use transform="matrix(0.05,0,0,0.05,52.5,0)" xlink:href="#ak"/><use transform="matrix(0.05,0,0,0.05,61.5,0)" xlink:href="#T"/><use transform="matrix(0.05,0,0,0.05,71.5,0)" xlink:href="#P"/></g><path fill="#333" d="M212-179c-10-28-35-45-73-45-59 0-87 40-87 99 0 60 29 101 89 101 43 0 62-24 78-52l27 14C228-24 195 4 139 4 59 4 22-46 18-125c-6-104 99-153 187-111 19 9 31 26 39 46" id="an"/><path fill="#333" d="M24 0v-261h32V0H24" id="ao"/><path fill="#333" d="M24-231v-30h32v30H24zM24 0v-190h32V0H24" id="ap"/><path fill="#333" d="M117-194c89-4 53 116 60 194h-32v-121c0-31-8-49-39-48C34-167 62-67 57 0H25l-1-190h30c1 10-1 24 2 32 11-22 29-35 61-36" id="aq"/><g id="s"><use transform="matrix(0.06172839506172839,0,0,0.06172839506172839,0,0)" xlink:href="#an"/><use transform="matrix(0.06172839506172839,0,0,0.06172839506172839,15.987654320987653,0)" xlink:href="#ao"/><use transform="matrix(0.06172839506172839,0,0,0.06172839506172839,20.864197530864196,0)" xlink:href="#ap"/><use transform="matrix(0.06172839506172839,0,0,0.06172839506172839,25.74074074074074,0)" xlink:href="#L"/><use transform="matrix(0.06172839506172839,0,0,0.06172839506172839,38.08641975308642,0)" xlink:href="#aq"/><use transform="matrix(0.06172839506172839,0,0,0.06172839506172839,50.432098765432094,0)" xlink:href="#K"/><use transform="matrix(0.06172839506172839,0,0,0.06172839506172839,56.60493827160494,0)" xlink:href="#L"/></g><g id="t"><use transform="matrix(0.05,0,0,0.05,0,0)" xlink:href="#T"/><use transform="matrix(0.05,0,0,0.05,10,0)" xlink:href="#X"/><use transform="matrix(0.05,0,0,0.05,13.949999999999998,0)" xlink:href="#V"/><use transform="matrix(0.05,0,0,0.05,18.95,0)" xlink:href="#O"/><use transform="matrix(0.05,0,0,0.05,28.950000000000003,0)" xlink:href="#P"/><use transform="matrix(0.05,0,0,0.05,34.9,0)" xlink:href="#T"/><use transform="matrix(0.05,0,0,0.05,44.9,0)" xlink:href="#P"/></g><use transform="matrix(0.05,0,0,0.05,0,0)" xlink:href="#Z" id="u"/><g id="v"><use transform="matrix(0.05,0,0,0.05,0,0)" xlink:href="#ag"/><use transform="matrix(0.05,0,0,0.05,10,0)" xlink:href="#O"/><use transform="matrix(0.05,0,0,0.05,20,0)" xlink:href="#ah"/><use transform="matrix(0.05,0,0,0.05,30,0)" xlink:href="#S"/><use transform="matrix(0.05,0,0,0.05,33.95,0)" xlink:href="#Z"/></g><g id="w"><use transform="matrix(0.05,0,0,0.05,0,0)" xlink:href="#R"/><use transform="matrix(0.05,0,0,0.05,9,0)" xlink:href="#Z"/><use transform="matrix(0.05,0,0,0.05,19,0)" xlink:href="#Q"/><use transform="matrix(0.05,0,0,0.05,29,0)" xlink:href="#V"/><use transform="matrix(0.05,0,0,0.05,34,0)" xlink:href="#P"/><use transform="matrix(0.05,0,0,0.05,39.95,0)" xlink:href="#Z"/><use transform="matrix(0.05,0,0,0.05,49.95,0)" xlink:href="#X"/><use transform="matrix(0.05,0,0,0.05,53.900000000000006,0)" xlink:href="#T"/><use transform="matrix(0.05,0,0,0.05,63.900000000000006,0)" xlink:href="#P"/></g><g id="x"><use transform="matrix(0.05,0,0,0.05,0,0)" xlink:href="#ab"/><use transform="matrix(0.05,0,0,0.05,5,0)" xlink:href="#ad"/><use transform="matrix(0.05,0,0,0.05,15,0)" xlink:href="#Q"/><use transform="matrix(0.05,0,0,0.05,25,0)" xlink:href="#R"/><use transform="matrix(0.05,0,0,0.05,34,0)" xlink:href="#S"/><use transform="matrix(0.05,0,0,0.05,37.95,0)" xlink:href="#Z"/><use transform="matrix(0.05,0,0,0.05,47.95,0)" xlink:href="#Q"/><use transform="matrix(0.05,0,0,0.05,57.95,0)" xlink:href="#T"/><use transform="matrix(0.05,0,0,0.05,67.95,0)" xlink:href="#Y"/><use transform="matrix(0.05,0,0,0.05,82.9,0)" xlink:href="#O"/><use transform="matrix(0.05,0,0,0.05,92.9,0)" xlink:href="#Q"/><use transform="matrix(0.05,0,0,0.05,102.9,0)" xlink:href="#V"/><use transform="matrix(0.05,0,0,0.05,107.9,0)" xlink:href="#Z"/></g><g id="y"><use transform="matrix(0.05,0,0,0.05,0,0)" xlink:href="#aa"/><use transform="matrix(0.05,0,0,0.05,12.950000000000001,0)" xlink:href="#O"/><use transform="matrix(0.05,0,0,0.05,22.950000000000003,0)" xlink:href="#ab"/><use transform="matrix(0.05,0,0,0.05,27.950000000000003,0)" xlink:href="#S"/><use transform="matrix(0.05,0,0,0.05,31.900000000000002,0)" xlink:href="#Q"/><use transform="matrix(0.05,0,0,0.05,41.900000000000006,0)" xlink:href="#S"/><use transform="matrix(0.05,0,0,0.05,45.85000000000001,0)" xlink:href="#P"/></g><use transform="matrix(0.05,0,0,0.05,0,0)" xlink:href="#T" id="z"/><path d="M145-31C134-9 116 4 85 4 32 4 16-35 15-94c0-59 17-99 70-100 32-1 48 14 60 33 0-11-1-24 2-32h30l-1 268h-32zM93-21c41 0 51-33 51-76s-8-73-50-73c-40 0-46 35-46 75s5 74 45 74" id="ar"/><g id="A"><use transform="matrix(0.05,0,0,0.05,0,0)" xlink:href="#ar"/><use transform="matrix(0.05,0,0,0.05,10,0)" xlink:href="#V"/><use transform="matrix(0.05,0,0,0.05,15,0)" xlink:href="#ah"/></g><path fill="#333" d="M85-194c31 0 48 13 60 33l-1-100h32l1 261h-30c-2-10 0-23-3-31C134-8 116 4 85 4 32 4 16-35 15-94c0-66 23-100 70-100zm9 24c-40 0-46 34-46 75 0 40 6 74 45 74 42 0 51-32 51-76 0-42-9-74-50-73" id="as"/><path fill="#333" d="M210-169c-67 3-38 105-44 169h-31v-121c0-29-5-50-35-48C34-165 62-65 56 0H25l-1-190h30c1 10-1 24 2 32 10-44 99-50 107 0 11-21 27-35 58-36 85-2 47 119 55 194h-31v-121c0-29-5-49-35-48" id="at"/><path fill="#333" d="M100-194c62-1 85 37 85 99 1 63-27 99-86 99S16-35 15-95c0-66 28-99 85-99zM99-20c44 1 53-31 53-75 0-43-8-75-51-75s-53 32-53 75 10 74 51 75" id="au"/><g id="B"><use transform="matrix(0.06172839506172839,0,0,0.06172839506172839,0,0)" xlink:href="#I"/><use transform="matrix(0.06172839506172839,0,0,0.06172839506172839,12.345679012345679,0)" xlink:href="#as"/><use transform="matrix(0.06172839506172839,0,0,0.06172839506172839,24.691358024691358,0)" xlink:href="#at"/><use transform="matrix(0.06172839506172839,0,0,0.06172839506172839,43.148148148148145,0)" xlink:href="#ap"/><use transform="matrix(0.06172839506172839,0,0,0.06172839506172839,48.02469135802469,0)" xlink:href="#aq"/><use transform="matrix(0.06172839506172839,0,0,0.06172839506172839,60.37037037037037,0)" xlink:href="#ap"/><use transform="matrix(0.06172839506172839,0,0,0.06172839506172839,65.24691358024691,0)" xlink:href="#J"/><use transform="matrix(0.06172839506172839,0,0,0.06172839506172839,76.35802469135803,0)" xlink:href="#K"/><use transform="matrix(0.06172839506172839,0,0,0.06172839506172839,82.53086419753086,0)" xlink:href="#M"/><use transform="matrix(0.06172839506172839,0,0,0.06172839506172839,89.87654320987654,0)" xlink:href="#I"/><use transform="matrix(0.06172839506172839,0,0,0.06172839506172839,102.22222222222223,0)" xlink:href="#as"/><use transform="matrix(0.06172839506172839,0,0,0.06172839506172839,114.56790123456791,0)" xlink:href="#au"/><use transform="matrix(0.06172839506172839,0,0,0.06172839506172839,126.9135802469136,0)" xlink:href="#M"/></g><path fill="#333" d="M30 0v-248h187v28H63v79h144v27H63v87h162V0H30" id="av"/><path fill="#333" d="M177-190C167-65 218 103 67 71c-23-6-38-20-44-43l32-5c15 47 100 32 89-28v-30C133-14 115 1 83 1 29 1 15-40 15-95c0-56 16-97 71-98 29-1 48 16 59 35 1-10 0-23 2-32h30zM94-22c36 0 50-32 50-73 0-42-14-75-50-75-39 0-46 34-46 75s6 73 46 73" id="aw"/><g id="C"><use transform="matrix(0.06172839506172839,0,0,0.06172839506172839,0,0)" xlink:href="#av"/><use transform="matrix(0.06172839506172839,0,0,0.06172839506172839,14.814814814814813,0)" xlink:href="#aq"/><use transform="matrix(0.06172839506172839,0,0,0.06172839506172839,27.160493827160494,0)" xlink:href="#K"/><use transform="matrix(0.06172839506172839,0,0,0.06172839506172839,33.333333333333336,0)" xlink:href="#M"/><use transform="matrix(0.06172839506172839,0,0,0.06172839506172839,40.67901234567901,0)" xlink:href="#L"/><use transform="matrix(0.06172839506172839,0,0,0.06172839506172839,53.02469135802469,0)" xlink:href="#aw"/><use transform="matrix(0.06172839506172839,0,0,0.06172839506172839,65.37037037037037,0)" xlink:href="#I"/><use transform="matrix(0.06172839506172839,0,0,0.06172839506172839,77.71604938271605,0)" xlink:href="#as"/><use transform="matrix(0.06172839506172839,0,0,0.06172839506172839,90.06172839506173,0)" xlink:href="#au"/><use transform="matrix(0.06172839506172839,0,0,0.06172839506172839,102.40740740740742,0)" xlink:href="#M"/></g><path fill="#333" d="M63-220v92h138v28H63V0H30v-248h175v28H63" id="ax"/><path fill="#333" d="M84 4C-5 8 30-112 23-190h32v120c0 31 7 50 39 49 72-2 45-101 50-169h31l1 190h-30c-1-10 1-25-2-33-11 22-28 36-60 37" id="ay"/><path fill="#333" d="M96-169c-40 0-48 33-48 73s9 75 48 75c24 0 41-14 43-38l32 2c-6 37-31 61-74 61-59 0-76-41-82-99-10-93 101-131 147-64 4 7 5 14 7 22l-32 3c-4-21-16-35-41-35" id="az"/><g id="D"><use transform="matrix(0.06172839506172839,0,0,0.06172839506172839,0,0)" xlink:href="#ax"/><use transform="matrix(0.06172839506172839,0,0,0.06172839506172839,13.518518518518517,0)" xlink:href="#ay"/><use transform="matrix(0.06172839506172839,0,0,0.06172839506172839,25.864197530864196,0)" xlink:href="#aq"/><use transform="matrix(0.06172839506172839,0,0,0.06172839506172839,38.20987654320987,0)" xlink:href="#az"/><use transform="matrix(0.06172839506172839,0,0,0.06172839506172839,49.32098765432099,0)" xlink:href="#ap"/><use transform="matrix(0.06172839506172839,0,0,0.06172839506172839,54.19753086419753,0)" xlink:href="#au"/><use transform="matrix(0.06172839506172839,0,0,0.06172839506172839,66.54320987654322,0)" xlink:href="#aq"/><use transform="matrix(0.06172839506172839,0,0,0.06172839506172839,78.8888888888889,0)" xlink:href="#I"/><use transform="matrix(0.06172839506172839,0,0,0.06172839506172839,91.23456790123458,0)" xlink:href="#M"/><use transform="matrix(0.06172839506172839,0,0,0.06172839506172839,98.58024691358027,0)" xlink:href="#ap"/><use transform="matrix(0.06172839506172839,0,0,0.06172839506172839,103.45679012345681,0)" xlink:href="#au"/></g><path fill="#333" d="M15-91v-56l181-69v40L49-119l147 57v40" id="aA"/><path fill="#333" d="M185-48c-13 30-37 53-82 52C43 2 14-33 14-96s30-98 90-98c62 0 83 45 84 108H66c0 31 8 55 39 56 18 0 30-7 34-22zm-45-69c5-46-57-63-70-21-2 6-4 13-4 21h74" id="aB"/><path fill="#333" d="M144 0l-44-69L55 0H2l70-98-66-92h53l41 62 40-62h54l-67 91 71 99h-54" id="aC"/><path fill="#333" d="M115-3C79 11 28 4 28-45v-112H4v-33h27l15-45h31v45h36v33H77v99c-1 23 16 31 38 25v30" id="aD"/><path fill="#333" d="M135-194c87-1 58 113 63 194h-50c-7-57 23-157-34-157-59 0-34 97-39 157H25l-1-190h47c2 12-1 28 3 38 12-26 28-41 61-42" id="aE"/><path fill="#333" d="M88-194c31-1 46 15 58 34l-1-101h50l1 261h-48c-2-10 0-23-3-31C134-8 116 4 84 4 32 4 16-41 15-95c0-56 19-97 73-99zm17 164c33 0 40-30 41-66 1-37-9-64-41-64s-38 30-39 65c0 43 13 65 39 65" id="aF"/><path fill="#333" d="M15-22v-40l146-57-146-57v-40l181 69v56" id="aG"/><g id="E"><use transform="matrix(0.04938271604938272,0,0,0.04938271604938272,0,0)" xlink:href="#aA"/><use transform="matrix(0.04938271604938272,0,0,0.04938271604938272,10.370370370370372,0)" xlink:href="#aA"/><use transform="matrix(0.04938271604938272,0,0,0.04938271604938272,20.740740740740744,0)" xlink:href="#aB"/><use transform="matrix(0.04938271604938272,0,0,0.04938271604938272,30.617283950617285,0)" xlink:href="#aC"/><use transform="matrix(0.04938271604938272,0,0,0.04938271604938272,40.49382716049384,0)" xlink:href="#aD"/><use transform="matrix(0.04938271604938272,0,0,0.04938271604938272,46.37037037037038,0)" xlink:href="#aB"/><use transform="matrix(0.04938271604938272,0,0,0.04938271604938272,56.24691358024693,0)" xlink:href="#aE"/><use transform="matrix(0.04938271604938272,0,0,0.04938271604938272,67.06172839506173,0)" xlink:href="#aF"/><use transform="matrix(0.04938271604938272,0,0,0.04938271604938272,77.87654320987654,0)" xlink:href="#aG"/><use transform="matrix(0.04938271604938272,0,0,0.04938271604938272,88.24691358024691,0)" xlink:href="#aG"/></g><path fill="#333" d="M25-224v-37h50v37H25zM25 0v-190h50V0H25" id="aH"/><path fill="#333" d="M190-63c-7 42-38 67-86 67-59 0-84-38-90-98-12-110 154-137 174-36l-49 2c-2-19-15-32-35-32-30 0-35 28-38 64-6 74 65 87 74 30" id="aI"/><path fill="#333" d="M25 0v-261h50V0H25" id="aJ"/><path fill="#333" d="M85 4C-2 5 27-109 22-190h50c7 57-23 150 33 157 60-5 35-97 40-157h50l1 190h-47c-2-12 1-28-3-38-12 25-28 42-61 42" id="aK"/><g id="F"><use transform="matrix(0.04938271604938272,0,0,0.04938271604938272,0,0)" xlink:href="#aA"/><use transform="matrix(0.04938271604938272,0,0,0.04938271604938272,10.370370370370372,0)" xlink:href="#aA"/><use transform="matrix(0.04938271604938272,0,0,0.04938271604938272,20.740740740740744,0)" xlink:href="#aH"/><use transform="matrix(0.04938271604938272,0,0,0.04938271604938272,25.679012345679016,0)" xlink:href="#aE"/><use transform="matrix(0.04938271604938272,0,0,0.04938271604938272,36.49382716049383,0)" xlink:href="#aI"/><use transform="matrix(0.04938271604938272,0,0,0.04938271604938272,46.370370370370374,0)" xlink:href="#aJ"/><use transform="matrix(0.04938271604938272,0,0,0.04938271604938272,51.308641975308646,0)" xlink:href="#aK"/><use transform="matrix(0.04938271604938272,0,0,0.04938271604938272,62.12345679012346,0)" xlink:href="#aF"/><use transform="matrix(0.04938271604938272,0,0,0.04938271604938272,72.93827160493828,0)" xlink:href="#aB"/><use transform="matrix(0.04938271604938272,0,0,0.04938271604938272,82.81481481481482,0)" xlink:href="#aG"/><use transform="matrix(0.04938271604938272,0,0,0.04938271604938272,93.18518518518519,0)" xlink:href="#aG"/></g><g id="G"><use transform="matrix(0.04938271604938272,0,0,0.04938271604938272,0,0)" xlink:href="#aA"/><use transform="matrix(0.04938271604938272,0,0,0.04938271604938272,10.370370370370372,0)" xlink:href="#aH"/><use transform="matrix(0.04938271604938272,0,0,0.04938271604938272,15.308641975308642,0)" xlink:href="#aE"/><use transform="matrix(0.04938271604938272,0,0,0.04938271604938272,26.12345679012346,0)" xlink:href="#aI"/><use transform="matrix(0.04938271604938272,0,0,0.04938271604938272,36,0)" xlink:href="#aJ"/><use transform="matrix(0.04938271604938272,0,0,0.04938271604938272,40.93827160493827,0)" xlink:href="#aK"/><use transform="matrix(0.04938271604938272,0,0,0.04938271604938272,51.75308641975309,0)" xlink:href="#aF"/><use transform="matrix(0.04938271604938272,0,0,0.04938271604938272,62.567901234567906,0)" xlink:href="#aB"/><use transform="matrix(0.04938271604938272,0,0,0.04938271604938272,72.44444444444446,0)" xlink:href="#aG"/><use transform="matrix(0.04938271604938272,0,0,0.04938271604938272,82.81481481481482,0)" xlink:href="#aG"/></g></defs></g></svg>